<svg version="1.1" viewBox="0.0 0.0 960.0 720.0" fill="none" stroke="none" stroke-linecap="square" stroke-miterlimit="10" xmlns:xlink="http://www.w3.org/1999/xlink" xmlns="http://www.w3.org/2000/svg"><clipPath id="p.0"><path d="m0 0l960.0 0l0 720.0l-960.0 0l0 -720.0z" clip-rule="nonzero"/></clipPath><g clip-path="url(#p.0)"><path fill="#000000" fill-opacity="0.0" d="m0 0l960.0 0l0 720.0l-960.0 0z" fill-rule="evenodd"/><path fill="#000000" fill-opacity="0.0" d="m146.44095 360.0l0 0c0 -184.21957 149.33948 -333.55905 333.55905 -333.55905l0 0c88.46533 0 173.30743 35.142727 235.86188 97.69719c62.554443 62.55445 97.697205 147.39651 97.697205 235.86188l0 0c0 184.2196 -149.33948 333.55908 -333.55908 333.55908l0 0c-184.21957 0 -333.55905 -149.33948 -333.55905 -333.55908z" fill-rule="evenodd"/><path stroke="#cfe2f3" stroke-width="12.0" stroke-linejoin="round" stroke-linecap="butt" d="m146.44095 360.0l0 0c0 -184.21957 149.33948 -333.55905 333.55905 -333.55905l0 0c88.46533 0 173.30743 35.142727 235.86188 97.69719c62.554443 62.55445 97.697205 147.39651 97.697205 235.86188l0 0c0 184.2196 -149.33948 333.55908 -333.55908 333.55908l0 0c-184.21957 0 -333.55905 -149.33948 -333.55905 -333.55908z" fill-rule="evenodd"/><path fill="#000000" fill-opacity="0.0" d="m146.44095 360.0l0 0c0 -184.21957 149.33948 -333.55905 333.55905 -333.55905l0 0c88.46533 0 173.30743 35.142727 235.86188 97.69719c62.554443 62.55445 97.697205 147.39651 97.697205 235.86188l0 0c0 184.2196 -149.33948 333.55908 -333.55908 333.55908l0 0c-184.21957 0 -333.55905 -149.33948 -333.55905 -333.55908z" fill-rule="evenodd"/><path stroke="#6fa8dc" stroke-width="8.0" stroke-linejoin="round" stroke-linecap="butt" d="m146.44095 360.0l0 0c0 -184.21957 149.33948 -333.55905 333.55905 -333.55905l0 0c88.46533 0 173.30743 35.142727 235.86188 97.69719c62.554443 62.55445 97.697205 147.39651 97.697205 235.86188l0 0c0 184.2196 -149.33948 333.55908 -333.55908 333.55908l0 0c-184.21957 0 -333.55905 -149.33948 -333.55905 -333.55908z" fill-rule="evenodd"/></g></svg>