<?xml version="1.0" encoding="UTF-8" standalone="no"?>
<!-- Created with Inkscape (http://www.inkscape.org/) -->

<svg
   width="210mm"
   height="297mm"
   viewBox="0 0 210 297"
   version="1.1"
   id="svg5"
   xml:space="preserve"
   inkscape:version="1.2.2 (732a01da63, 2022-12-09)"
   sodipodi:docname="ActualScaleButton.svg"
   xmlns:inkscape="http://www.inkscape.org/namespaces/inkscape"
   xmlns:sodipodi="http://sodipodi.sourceforge.net/DTD/sodipodi-0.dtd"
   xmlns="http://www.w3.org/2000/svg"
   xmlns:svg="http://www.w3.org/2000/svg"><sodipodi:namedview
     id="namedview7"
     pagecolor="#ffffff"
     bordercolor="#000000"
     borderopacity="0.25"
     inkscape:showpageshadow="2"
     inkscape:pageopacity="0.0"
     inkscape:pagecheckerboard="0"
     inkscape:deskcolor="#d1d1d1"
     inkscape:document-units="mm"
     showgrid="false"
     showguides="false"
     inkscape:zoom="5.1754899"
     inkscape:cx="167.23055"
     inkscape:cy="141.6291"
     inkscape:window-width="3840"
     inkscape:window-height="2066"
     inkscape:window-x="-11"
     inkscape:window-y="-11"
     inkscape:window-maximized="1"
     inkscape:current-layer="layer1" /><defs
     id="defs2" /><g
     inkscape:label="Layer 1"
     inkscape:groupmode="layer"
     id="layer1"><rect
       width="56.356251"
       height="16.139584"
       rx="1.3229166"
       fill="#e3e3e2"
       id="rect182-0-1"
       x="0"
       y="0"
       style="stroke-width:0.264583" /><g
       id="g686"
       transform="translate(-54.770134,-0.058665)"><path
         style="fill:#000000;stroke-width:0.0317692"
         d="m 99.075392,12.590298 c 0.448542,-0.0658 0.990068,-0.255603 1.566668,-0.54911 0.20968,-0.106733 0.40268,-0.191227 0.42889,-0.187765 0.49823,0.06582 0.76125,0.07663 1.07227,0.04407 1.8185,-0.190407 3.18867,-1.560568 3.37908,-3.3790557 0.0336,-0.320659 0.0286,-0.444147 -0.0432,-1.072268 -0.003,-0.02621 0.0957,-0.250879 0.21934,-0.499266 0.46164,-0.927444 0.63641,-1.723412 0.50281,-2.290063 -0.0595,-0.252398 -0.11482,-0.359003 -0.27838,-0.536436 -0.16911,-0.183464 -0.34,-0.281577 -0.59523,-0.341731 -0.57299,-0.135044 -1.36469,0.03786 -2.29601,0.501423 -0.24839,0.123636 -0.47306,0.22234 -0.49927,0.219344 -0.62813,-0.07181 -0.75162,-0.07679 -1.07228,-0.04322 -1.818491,0.190407 -3.188653,1.560568 -3.379058,3.379056 -0.03257,0.311018 -0.02176,0.574037 0.04407,1.072268 0.0035,0.02621 -0.08103,0.219209 -0.187766,0.428885 -0.563978,1.1079337 -0.727139,2.0982297 -0.437865,2.6576207 0.07418,0.143457 0.292724,0.369821 0.440841,0.456624 0.259707,0.152197 0.689234,0.20503 1.135116,0.139622 z m -0.539605,-0.906434 c -0.07941,-0.01588 -0.109613,-0.04879 -0.167614,-0.182673 -0.132353,-0.305493 -0.07982,-0.864709 0.12387,-1.318607 l 0.06224,-0.138693 0.15923,0.234001 c 0.08758,0.128699 0.232797,0.315714 0.322714,0.415588 l 0.163483,0.181589 0.157216,-0.06197 c 0.640429,-0.252435 1.575854,-0.8656337 2.346234,-1.5380227 0.578,-0.504483 1.36793,-1.346941 1.82006,-1.941076 0.24671,-0.324193 0.61386,-0.905853 0.78276,-1.24008 0.25739,-0.509356 0.25417,-0.461492 0.0439,-0.651357 -0.0998,-0.09005 -0.28434,-0.236089 -0.41019,-0.324529 -0.12586,-0.08844 -0.22213,-0.171644 -0.21394,-0.184897 0.008,-0.01325 0.16244,-0.08178 0.34277,-0.15229 0.6627,-0.259099 1.09045,-0.236106 1.24721,0.06704 0.37267,0.72066 -0.80525,2.703298 -2.72397,4.584889 -1.2831,1.2582747 -2.42997,2.0167557 -3.379265,2.2348757 -0.149925,0.03445 -0.538872,0.04376 -0.676657,0.01621 z"
         id="path630" /><path
         style="fill:#000000;stroke-width:0.051902"
         d="m 63.594265,10.465073 c -0.58362,-0.208296 -0.630261,-0.321884 -0.65307,-1.5905044 -0.0209,-1.1622457 0.01745,-1.3906466 0.274111,-1.6327104 0.213997,-0.201826 0.489218,-0.2844782 0.942456,-0.283032 0.753165,0.00235 1.109872,0.3601423 1.109872,1.1130859 V 8.4109424 H 65.034075 64.800516 V 8.1497658 c 0,-0.3723226 -0.112431,-0.6083727 -0.333828,-0.7008787 -0.22839,-0.095425 -0.450552,-0.096623 -0.673146,-0.00364 -0.325436,0.1359762 -0.342479,0.201595 -0.342479,1.3185745 v 1.0045339 l 0.147268,0.1472676 c 0.307019,0.3070199 0.948648,0.2335949 1.120333,-0.1282062 0.04502,-0.094869 0.08185,-0.2799 0.08185,-0.4111804 V 9.1375486 h 0.233559 0.233559 l -0.0012,0.3243886 c -0.0018,0.5288998 -0.200304,0.8573408 -0.605274,1.0017698 -0.253003,0.09024 -0.815914,0.09094 -1.066956,0.0014 z m 3.074724,0.01285 c -0.09991,-0.0284 -0.224921,-0.09047 -0.277799,-0.137927 -0.22583,-0.202675 -0.241221,-0.307377 -0.241221,-1.6410126 V 7.4248036 H 65.94236 65.734752 V 7.217196 7.0095884 h 0.207608 0.207609 V 6.6203233 6.2310572 h 0.233559 0.233558 v 0.3892661 0.3892651 h 0.363315 0.363314 V 7.217196 7.4248036 h -0.363314 -0.363315 v 1.1908529 c 0,1.1847558 6.49e-4,1.1915985 0.125511,1.3364775 0.114076,0.132357 0.154271,0.144802 0.441167,0.136598 l 0.315657,-0.009 v 0.196606 c 0,0.194545 -0.0026,0.19695 -0.240802,0.22961 -0.295291,0.04048 -0.359498,0.03743 -0.58963,-0.028 z m 1.722751,-0.02263 C 68.29512,10.405793 68.175994,10.280965 68.119254,10.169745 68.026407,9.9877542 68.018438,9.8550585 68.018438,8.4908605 V 7.0095852 h 0.231212 0.231212 l 0.01532,1.4259456 c 0.01492,1.3887266 0.0183,1.4289172 0.129219,1.5397607 0.151567,0.1514565 0.475732,0.1492105 0.833316,-0.00578 L 69.7312,9.851413 V 8.4304991 7.0095841 h 0.233559 0.23356 v 1.7387187 1.7387182 h -0.176031 c -0.1446,0 -0.181861,-0.02323 -0.20868,-0.130087 l -0.03265,-0.130085 -0.271413,0.137762 c -0.350077,0.17769 -0.866191,0.219556 -1.117813,0.09068 z m 3.038768,0.01239 c -0.400905,-0.149082 -0.505553,-0.336337 -0.505553,-0.9046339 0,-0.3395448 0.02013,-0.4399823 0.116956,-0.5836687 0.207858,-0.3084409 0.406037,-0.3839092 1.063816,-0.4051079 L 72.689624,8.555447 V 8.1158883 c 0,-0.4166239 -0.0079,-0.4474732 -0.151714,-0.5912719 -0.123027,-0.1230278 -0.196168,-0.1517131 -0.386822,-0.1517131 -0.414032,0 -0.603309,0.1635993 -0.603309,0.5214621 0,0.1476527 -0.0088,0.1532642 -0.239986,0.1532642 h -0.239986 l 0.02385,-0.2876134 c 0.02517,-0.3034959 0.125555,-0.4851416 0.36826,-0.6663466 0.10807,-0.080685 0.241117,-0.1083841 0.593667,-0.1235926 0.396655,-0.017115 0.484055,-0.00428 0.687941,0.1007841 0.404324,0.2084045 0.415043,0.2587548 0.415136,1.9499322 l 8e-5,1.4662327 h -0.186516 c -0.144576,0 -0.192793,-0.024 -0.214429,-0.106742 -0.01951,-0.0746 -0.0532,-0.09594 -0.11192,-0.07087 -0.485075,0.207164 -0.926881,0.264785 -1.213368,0.158251 z m 1.066515,-0.465802 0.196545,-0.082119 -0.01494,-0.4819186 -0.01494,-0.4819187 -0.424855,0.00535 c -0.50695,0.00631 -0.711805,0.07969 -0.797043,0.2854773 -0.101394,0.2447785 -0.03468,0.6171043 0.137049,0.764812 0.126263,0.108608 0.182418,0.12139 0.433358,0.09864 0.158563,-0.01438 0.376742,-0.0631 0.484841,-0.108264 z m 4.691666,0.461858 C 76.774907,10.316156 76.634178,10.065632 76.634178,9.4766003 V 9.0856676 h 0.25951 0.25951 v 0.3331182 c 0,0.1832159 0.0145,0.3709266 0.03224,0.4171363 0.06169,0.1607606 0.307897,0.2358849 0.773075,0.2358849 0.646351,0 0.773006,-0.088751 0.830651,-0.5820242 C 78.834913,9.098326 78.780392,8.8039341 78.628929,8.6238822 78.503695,8.4750518 78.438036,8.4509362 77.629493,8.2568085 76.90224,8.0821991 76.739426,7.8915351 76.698878,7.1670029 c -0.05494,-0.9816024 0.277577,-1.3678574 1.180948,-1.3718237 0.507663,-0.00225 0.766813,0.071775 1.01528,0.2899357 0.202694,0.1779671 0.281572,0.4111579 0.28198,0.8336437 l 2.95e-4,0.2984363 H 78.91787 78.65836 V 6.9066018 c 0,-0.2686033 -0.02012,-0.3331171 -0.148861,-0.4771982 -0.133614,-0.1495407 -0.184169,-0.1688535 -0.493593,-0.1885557 -0.624824,-0.039781 -0.810802,0.1415534 -0.810802,0.7905809 0,0.3686344 0.05853,0.5477407 0.209902,0.6422716 0.0543,0.033908 0.315383,0.1097265 0.580204,0.1684898 0.606604,0.134606 0.977668,0.3025406 1.124685,0.509009 0.218442,0.3067712 0.267184,1.2109895 0.08835,1.6389939 -0.08831,0.2113529 -0.345045,0.4263959 -0.590426,0.4945459 -0.276853,0.07689 -1.192365,0.06343 -1.42913,-0.02101 z m 3.493511,0.0267 c -0.271154,-0.08249 -0.460846,-0.215082 -0.578551,-0.404402 -0.113292,-0.182222 -0.123062,-0.2587728 -0.140011,-1.0970824 -0.01006,-0.4956564 -0.0027,-1.0258245 0.01638,-1.1781527 0.06832,-0.5467844 0.400298,-0.8115519 1.060115,-0.8454775 0.852605,-0.043835 1.247642,0.302239 1.250223,1.0952749 l 0.0012,0.3503388 H 82.057971 81.824412 V 8.1497615 c 0,-0.3723226 -0.11243,-0.6083727 -0.333828,-0.7008786 -0.228389,-0.095425 -0.450552,-0.096623 -0.673146,-0.00364 -0.325435,0.1359762 -0.342478,0.201595 -0.342478,1.3185745 v 1.0045339 l 0.147267,0.1472676 c 0.30702,0.3070201 0.948648,0.2335941 1.120333,-0.1282061 0.04502,-0.094869 0.08185,-0.2799001 0.08185,-0.4111805 v -0.238691 h 0.233559 0.233559 l -0.0012,0.3243886 c -0.0018,0.5288997 -0.200304,0.8573401 -0.605274,1.0017701 -0.212948,0.07595 -0.790446,0.09133 -1.002885,0.0267 z m 2.777095,0.0024 c -0.394131,-0.100816 -0.552618,-0.334157 -0.58306,-0.8584165 -0.01794,-0.3088249 -0.0021,-0.404112 0.09921,-0.6006175 0.178509,-0.3459114 0.394015,-0.4341901 1.119644,-0.4586438 l 0.583899,-0.019729 -3.14e-4,-0.3187867 C 84.678086,7.573923 84.536006,7.3728896 84.068205,7.3728896 c -0.35923,0 -0.531064,0.1503793 -0.531064,0.464759 v 0.2099673 h -0.233559 -0.233559 l 2.16e-4,-0.2724851 c 4.11e-4,-0.5817337 0.369609,-0.8464787 1.12514,-0.8068239 0.464576,0.024388 0.605652,0.088654 0.817784,0.3725547 0.101362,0.1356531 0.107851,0.2224813 0.122911,1.644682 l 0.01588,1.5014674 h -0.204478 c -0.16151,0 -0.210239,-0.02204 -0.231897,-0.104849 -0.0273,-0.104399 -0.02851,-0.104431 -0.280455,-0.0051 -0.298143,0.117516 -0.756418,0.171874 -0.975832,0.115746 z m 1.030915,-0.4989436 0.192499,-0.09135 -0.01484,-0.4732993 c -0.01727,-0.5511711 0.0049,-0.5351806 -0.656216,-0.4732286 -0.520419,0.048766 -0.630217,0.1527453 -0.630217,0.5968052 0,0.2707651 0.01925,0.3353816 0.134149,0.4502803 0.122882,0.122882 0.161362,0.131965 0.458136,0.108143 0.178193,-0.0143 0.41061,-0.06711 0.516484,-0.1173529 z m 3.59642,0.4693616 c -0.247554,-0.08827 -0.440701,-0.262164 -0.533763,-0.4805717 -0.103084,-0.2419281 -0.10164,-2.2968215 0.0017,-2.4955423 0.179393,-0.3447915 0.538487,-0.5295638 1.02833,-0.5291295 0.415381,3.733e-4 0.669458,0.071625 0.876471,0.2458161 0.254676,0.2142995 0.305965,0.3989713 0.305965,1.1016822 V 8.9300033 H 88.851722 87.93811 l 0.0183,0.4400069 c 0.01637,0.393364 0.03278,0.4544859 0.154923,0.5766089 0.1644,0.1643779 0.51217,0.2194339 0.795478,0.1259339 0.225213,-0.074331 0.390923,-0.3109651 0.391207,-0.5586521 1.97e-4,-0.1652894 0.0049,-0.1686813 0.233755,-0.1686813 h 0.233558 v 0.2352253 c 0,0.4412451 -0.205362,0.7333791 -0.617851,0.8789131 -0.276799,0.09766 -0.792626,0.09955 -1.060909,0.004 z m 1.211643,-2.2624603 c 0,-0.5998432 -0.199198,-0.8278547 -0.723234,-0.8278547 -0.215338,0 -0.291065,0.026624 -0.430768,0.1514479 -0.162723,0.1453925 -0.170232,0.1692589 -0.187802,0.5968737 l -0.0183,0.4454248 h 0.680053 0.680051 z M 59.155971,10.422129 c 0.01314,-0.03568 0.323282,-1.0750206 0.689213,-2.3096401 l 0.66533,-2.2447627 h 0.298981 c 0.239784,0 0.304362,0.017981 0.326166,0.090826 0.412436,1.3779187 1.329263,4.4833578 1.329263,4.5024238 0,0.01431 -0.113431,0.02603 -0.252066,0.02603 H 61.960794 L 61.808733,9.955005 61.656673,9.4230088 H 60.807612 59.95855 l -0.0666,0.2335588 C 59.85533,9.7850251 59.786986,10.024424 59.740101,10.188564 L 59.654848,10.487 h -0.26138 c -0.187241,0 -0.254606,-0.0184 -0.237495,-0.06488 z m 2.16107,-2.2058363 c -0.412683,-1.467314 -0.502294,-1.7497053 -0.531164,-1.6738402 -0.05803,0.1525005 -0.656546,2.2791279 -0.656546,2.3328167 0,0.035577 0.242515,0.054681 0.694213,0.054681 h 0.694214 z M 74.372298,10.427603 C 74.312928,10.398793 74.219504,10.301112 74.16469,10.210532 74.07151,10.056561 74.064034,9.9098479 74.04984,7.9567827 L 74.03465,5.8677262 h 0.233461 0.233462 l 0.01528,1.9928441 c 0.01438,1.8749249 0.02114,1.9993038 0.114158,2.1020315 0.06783,0.074909 0.161526,0.1091892 0.298437,0.1091892 0.198223,0 0.199563,0.0014 0.199563,0.207608 v 0.207608 l -0.324387,-0.0035 c -0.178413,-0.0019 -0.372964,-0.02708 -0.432334,-0.05589 z m 11.866327,-0.08574 C 86.003661,10.106894 85.976543,9.8397012 85.976543,7.7595958 V 5.8677262 h 0.25951 0.25951 v 1.9497386 c 0,2.2382462 0.0024,2.2516472 0.402241,2.2535312 0.162062,7.66e-4 0.16868,0.009 0.16868,0.208403 v 0.207608 H 86.72513 c -0.304564,0 -0.357,-0.01564 -0.486505,-0.145149 z"
         id="path682" /></g></g></svg>
