<svg width="102" height="39" viewBox="0 0 102 39" fill="none" xmlns="http://www.w3.org/2000/svg">
<rect width="102" height="39" rx="5" fill="#EEF4FB" fill-opacity="0.86"/>
<path d="M38.2172 25H36.3572L40.3772 10.6H42.5172L46.5372 25H44.6772L43.7972 21.68H39.0772L38.2172 25ZM41.4572 12.7L39.5172 20.04H43.3772L41.4572 12.7ZM47.9213 21.94V16.88C47.9213 15.1 48.9813 14 50.8413 14C51.8613 14 52.7013 14.26 53.5013 14.7L53.6413 14.12H55.0613V25C55.0613 27.68 53.6213 28.8 50.6213 28.8C49.7013 28.8 48.6813 28.68 48.0613 28.54V27C48.5413 27.12 49.6813 27.28 50.5013 27.28C52.3813 27.28 53.3013 26.48 53.3013 24.94V24.28C52.5013 24.72 51.6613 24.94 50.8813 24.94C48.9613 24.94 47.9213 23.72 47.9213 21.94ZM51.3213 23.34C51.9813 23.34 52.5813 23.16 53.3013 22.78V16.2C52.6013 15.78 52.0413 15.6 51.2813 15.6C50.3213 15.6 49.6813 16.12 49.6813 17.26V21.44C49.6813 22.58 50.2013 23.34 51.3213 23.34ZM59.192 21.74C59.192 23.1 59.792 23.68 61.112 23.68C62.352 23.68 63.132 23.1 63.132 21.74V21.4H64.892V22.08C64.892 24.06 63.472 25.2 61.112 25.2C58.772 25.2 57.432 24.06 57.432 22.08V17.12C57.432 15.14 58.772 14 61.112 14C63.472 14 64.892 15.14 64.892 17.12V20.32H59.192V21.74ZM59.192 17.46V18.9H63.132V17.46C63.132 16.1 62.352 15.52 61.112 15.52C59.792 15.52 59.192 16.1 59.192 17.46Z" fill="#181818"/>
</svg>
