<svg width="36" height="36" viewBox="0 0 36 36" fill="none" xmlns="http://www.w3.org/2000/svg">
<rect x="36" y="36" width="36" height="36" rx="4" transform="rotate(180 36 36)" fill="#ED733D"/>
<path fill-rule="evenodd" clip-rule="evenodd" d="M18 24.875C21.797 24.875 24.875 21.797 24.875 18C24.875 14.203 21.797 11.125 18 11.125C14.203 11.125 11.125 14.203 11.125 18C11.125 21.797 14.203 24.875 18 24.875ZM26.125 18C26.125 22.4873 22.4873 26.125 18 26.125C13.5127 26.125 9.875 22.4873 9.875 18C9.875 13.5127 13.5127 9.875 18 9.875C22.4873 9.875 26.125 13.5127 26.125 18Z" fill="white"/>
<path fill-rule="evenodd" clip-rule="evenodd" d="M17.9654 21.0904C17.7213 21.3345 17.3256 21.3345 17.0815 21.0904L14.4331 18.4419C14.189 18.1979 14.189 17.8021 14.4331 17.5581L17.0815 14.9096C17.3256 14.6655 17.7213 14.6655 17.9654 14.9096C18.2095 15.1537 18.2095 15.5494 17.9654 15.7935L15.7589 18L17.9654 20.2065C18.2095 20.4506 18.2095 20.8463 17.9654 21.0904Z" fill="white"/>
<path fill-rule="evenodd" clip-rule="evenodd" d="M21.75 18C21.75 18.3452 21.4702 18.625 21.125 18.625H14.875C14.5298 18.625 14.25 18.3452 14.25 18C14.25 17.6548 14.5298 17.375 14.875 17.375H21.125C21.4702 17.375 21.75 17.6548 21.75 18Z" fill="white"/>
</svg>
