<svg width="202" height="61" viewBox="0 0 202 61" fill="none" xmlns="http://www.w3.org/2000/svg">
<rect x="21" width="159" height="61" rx="5" fill="#D9D9D9"/>
<path d="M81.1619 39.504V42H69.2899V18.96H81.1619V21.456H72.2659V28.848H79.0819V31.344H72.2659V39.504H81.1619ZM83.3871 37.84V37.072C83.3871 34.064 85.0511 32.464 88.5711 32.464H92.2191V29.264C92.2191 27.568 91.3871 26.832 89.4991 26.832C87.6751 26.832 86.9391 27.568 86.9391 29.264V30.16H84.2511V28.88C84.2511 25.872 86.0751 24.4 89.5951 24.4C93.3391 24.4 95.0351 25.968 95.0351 28.88V42.128H92.6991L92.4111 40.912C91.0351 41.776 89.3391 42.192 87.7071 42.192C84.8911 42.192 83.3871 40.688 83.3871 37.84ZM88.6671 39.92C89.9151 39.92 91.2591 39.6 92.2191 38.96V34.64H89.0831C87.1631 34.64 86.2671 35.312 86.2671 36.976V37.68C86.2671 39.184 87.0991 39.92 88.6671 39.92ZM108.856 31.568H106.232V28.304C106.232 27.28 105.656 26.896 104.888 26.896C103.768 26.896 102.744 27.664 101.848 28.432V42H99.0324V24.592H101.304L101.592 26.192C102.744 25.232 104.056 24.4 105.88 24.4C107.864 24.4 108.856 25.744 108.856 27.824V31.568ZM110.158 27.024V24.72H112.11L112.654 20.24H114.894V24.72H118.606V27.024H114.894V37.136C114.894 38.896 115.566 39.792 117.294 39.792C117.998 39.792 118.926 39.632 119.246 39.504V41.872C118.734 42.032 117.582 42.192 116.654 42.192C113.358 42.192 112.078 40.528 112.078 37.616V27.024H110.158ZM124.536 42H121.72V18.96H124.536V25.712C125.88 25.008 127.448 24.4 129.048 24.4C131.768 24.4 133.08 26.064 133.08 28.784V42H130.264V29.552C130.264 27.76 129.432 26.992 128.088 26.992C126.904 26.992 125.56 27.6 124.536 28.176V42Z" fill="black"/>
</svg>
