<svg width="145" height="61" viewBox="0 0 145 61" fill="none" xmlns="http://www.w3.org/2000/svg">
<rect width="137" height="61" rx="5" fill="#747373"/>
<path d="M59.68 41.128V43H50.776V25.72H59.68V27.592H53.008V33.136H58.12V35.008H53.008V41.128H59.68ZM63.7523 39.136C63.7523 40.648 64.6163 41.32 66.1523 41.32C67.5203 41.32 68.4803 40.648 68.4803 39.136V37.912H70.4963V39.64C70.4963 41.92 68.9123 43.24 66.1523 43.24C63.2483 43.24 61.6403 41.92 61.6403 39.64V33.4C61.6403 31.12 63.2483 29.8 66.1523 29.8C68.9123 29.8 70.4963 31.12 70.4963 33.4V35.272H68.4803V33.904C68.4803 32.392 67.6163 31.72 66.1523 31.72C64.5443 31.72 63.7523 32.392 63.7523 33.904V39.136ZM73.2001 25.72H75.3121V38.992C75.3121 40.552 75.7201 41.272 76.7041 41.272C76.9681 41.272 77.3041 41.248 77.5201 41.176V42.952C77.1601 43.072 76.7761 43.096 75.9601 43.096C74.0881 43.096 73.2001 42.04 73.2001 39.256V25.72ZM81.3389 28.072H79.0589V25.36H81.3389V28.072ZM81.2189 43H79.1069V30.04H81.2189V43ZM86.4449 47.32H84.3329V29.944H86.0369L86.2769 31C87.5729 30.304 88.7249 29.8 89.9009 29.8C92.1329 29.8 93.2129 31.048 93.2129 33.256V39.424C93.2129 41.752 92.0369 43.168 89.7329 43.168C88.6049 43.168 87.4289 42.832 86.4449 42.16V47.32ZM89.3729 31.72C88.5329 31.72 87.5729 32.176 86.4449 32.752V40.336C87.2369 40.888 88.3169 41.248 89.2289 41.248C90.5249 41.248 91.1009 40.408 91.1009 38.968V33.712C91.1009 32.368 90.5249 31.72 89.3729 31.72ZM104.306 38.68V39.736C104.306 42.4 102.65 43.24 99.8659 43.24C97.2259 43.24 95.5939 42.376 95.5939 40.12V38.68H97.6099V39.856C97.6099 41.128 98.5219 41.416 99.8179 41.416C101.306 41.416 102.242 41.152 102.242 39.76V38.824C102.242 38.08 101.858 37.6 100.682 37.408L98.7859 37.072C96.5299 36.712 95.8339 36.016 95.8339 33.568V32.872C95.8339 30.88 97.2259 29.8 99.9619 29.8C102.602 29.8 104.066 30.856 104.066 32.776V34.096H102.074V32.944C102.074 32.032 101.474 31.528 100.034 31.528C98.4979 31.528 97.8259 31.936 97.8259 32.944V33.568C97.8259 34.84 98.2819 35.032 99.5779 35.272L101.306 35.584C103.49 35.944 104.306 36.712 104.306 38.68ZM108.776 39.088C108.776 40.72 109.496 41.416 111.08 41.416C112.568 41.416 113.504 40.72 113.504 39.088V38.68H115.616V39.496C115.616 41.872 113.912 43.24 111.08 43.24C108.272 43.24 106.664 41.872 106.664 39.496V33.544C106.664 31.168 108.272 29.8 111.08 29.8C113.912 29.8 115.616 31.168 115.616 33.544V37.384H108.776V39.088ZM108.776 33.952V35.68H113.504V33.952C113.504 32.32 112.568 31.624 111.08 31.624C109.496 31.624 108.776 32.32 108.776 33.952Z" fill="white"/>
<circle cx="27" cy="34" r="13" stroke="white" stroke-width="2"/>
</svg>
