<?xml version="1.0" encoding="UTF-8" standalone="no"?>
<!-- Created with Inkscape (http://www.inkscape.org/) -->

<svg
   width="210mm"
   height="297mm"
   viewBox="0 0 210 297"
   version="1.1"
   id="svg5"
   xml:space="preserve"
   inkscape:version="1.2.2 (732a01da63, 2022-12-09)"
   sodipodi:docname="ExitButton.svg"
   xmlns:inkscape="http://www.inkscape.org/namespaces/inkscape"
   xmlns:sodipodi="http://sodipodi.sourceforge.net/DTD/sodipodi-0.dtd"
   xmlns="http://www.w3.org/2000/svg"
   xmlns:svg="http://www.w3.org/2000/svg"><sodipodi:namedview
     id="namedview7"
     pagecolor="#ffffff"
     bordercolor="#000000"
     borderopacity="0.25"
     inkscape:showpageshadow="2"
     inkscape:pageopacity="0.0"
     inkscape:pagecheckerboard="0"
     inkscape:deskcolor="#d1d1d1"
     inkscape:document-units="mm"
     showgrid="false"
     inkscape:zoom="5.1754899"
     inkscape:cx="124.43266"
     inkscape:cy="64.341735"
     inkscape:window-width="3840"
     inkscape:window-height="2066"
     inkscape:window-x="-11"
     inkscape:window-y="-11"
     inkscape:window-maximized="1"
     inkscape:current-layer="layer1" /><defs
     id="defs2" /><g
     inkscape:label="Layer 1"
     inkscape:groupmode="layer"
     id="layer1"><rect
       style="fill:#e3e3e2;fill-opacity:1;stroke-width:0.187865"
       id="rect2603"
       width="56.356251"
       height="16.139999"
       x="-3.5527137e-15"
       y="0"
       rx="0.67399573" /><path
       style="fill:#000000;stroke-width:0.0249574"
       d="m 45.939252,13.424352 c -2.327495,-1.218508 -2.147458,-1.120028 -2.180572,-1.192722 -0.0417,-0.09155 -0.0401,-8.8408853 0.0018,-8.9325093 0.06536,-0.143453 -0.09609,-0.136568 3.202577,-0.136568 2.186307,0 3.050452,0.0078 3.089719,0.02788 0.02997,0.01533 0.07389,0.05183 0.09763,0.08111 0.03993,0.04927 0.04313,0.181124 0.04366,1.770976 l 5.6e-4,1.7177432 -0.07291,0.07295 c -0.09388,0.09388 -0.218584,0.09886 -0.318735,0.01273 l -0.06998,-0.06022 -0.01245,-1.5557712 -0.01245,-1.55577 -2.344879,-0.0064 c -1.358869,-0.0037 -2.334848,0.0029 -2.321039,0.0157 0.01316,0.01213 0.675224,0.361827 1.471371,0.777098 0.796138,0.415272 1.475604,0.78189 1.509927,0.814708 l 0.06242,0.05966 0.0062,3.2692042 0.0062,3.2692031 0.804604,-0.0066 0.804603,-0.0066 0.0062,-1.57972 c 0.0071,-1.7328241 7.56e-4,-1.6629001 0.156527,-1.7274421 0.09369,-0.0388 0.18723,-0.01488 0.263443,0.06735 l 0.06029,0.06503 v 1.7574931 c 0,1.15767 -0.0089,1.773882 -0.0257,1.805511 -0.06331,0.11829 -0.109736,0.123405 -1.120234,0.123405 h -0.94877 l -0.0071,0.937974 -0.0071,0.937973 -0.08154,0.0728 c -0.04926,0.04402 -0.108491,0.07237 -0.14975,0.07172 -0.03984,-6.59e-4 -0.837326,-0.403721 -1.915083,-0.967958 z m 5.301529,-3.5463327 c -0.07905,-0.07909 -0.09574,-0.187162 -0.04384,-0.284331 0.01601,-0.02998 0.263106,-0.3874087 0.549065,-0.7942794 0.285967,-0.406871 0.519934,-0.752219 0.519934,-0.767441 0,-0.02001 -0.508535,-0.02767 -1.836291,-0.02767 h -1.836291 l -0.07292,-0.07295 c -0.05397,-0.05401 -0.073,-0.09663 -0.073,-0.164142 0,-0.06752 0.01894,-0.110133 0.073,-0.164143 l 0.07292,-0.07295 h 1.836291 c 1.211502,0 1.836291,-0.0085 1.836291,-0.02504 0,-0.01377 -0.23402,-0.35912 -0.520032,-0.767441 -0.286021,-0.4083222 -0.533103,-0.7669342 -0.549064,-0.7969162 -0.0457,-0.08584 -0.03432,-0.198624 0.02712,-0.269384 0.07247,-0.08344 0.218913,-0.109644 0.303378,-0.0543 0.04686,0.0307 1.024201,1.3873442 1.426004,1.9794352 0.07789,0.114755 0.07789,0.226721 0,0.341476 -0.362723,0.534503 -1.375382,1.9452294 -1.417539,1.9747554 -0.08976,0.06287 -0.211843,0.04853 -0.295046,-0.03467 z"
       id="path5629" /><path
       style="fill:#000000;stroke-width:0.0514775"
       d="M 14.704189,10.203988 C 14.191324,10.021126 14.104208,9.754118 14.104208,8.3650621 V 7.3448532 h -0.231649 -0.23165 V 7.1132045 6.8815549 h 0.229297 0.229298 l 0.01522,-0.347474 0.01522,-0.3474731 0.226547,-0.016212 c 0.277718,-0.019872 0.312142,0.025764 0.313179,0.4151601 l 7.79e-4,0.2959957 h 0.540515 0.540514 v 0.2316495 0.2316488 h -0.540497 -0.540515 v 1.083369 c 0,1.0816075 2.14e-4,1.0835755 0.126355,1.2097238 0.144413,0.1444136 0.35546,0.1611413 0.660421,0.052347 l 0.194785,-0.069486 0.103158,0.2022088 c 0.05674,0.1112148 0.08971,0.2239775 0.07326,0.2505835 -0.04467,0.07228 -0.532612,0.205806 -0.742634,0.203223 -0.101034,-0.0013 -0.272763,-0.03401 -0.38162,-0.07283 z M 4.7352864,7.9618186 v -2.214303 l 1.5314581,0.013638 1.531459,0.013638 v 0.23165 0.2316487 l -1.2483319,0.013789 -1.2483319,0.01378 V 6.98543 7.7052016 h 1.1868054 1.1868046 l -0.015686,0.2445181 -0.015686,0.2445181 -1.1711148,0.013839 -1.1711156,0.013839 v 0.7188048 0.7188047 l 1.2483319,0.01378 1.2483318,0.01378 0.015686,0.2445195 0.015694,0.2445172 H 6.2824435 4.7352948 Z m 3.738998,2.1499554 C 8.4955606,10.076383 8.7649233,9.7061412 9.0728631,9.2890138 L 9.6327553,8.5306007 9.0629529,7.7637288 C 8.7495611,7.3419493 8.4931505,6.9709135 8.4931505,6.9392055 c 0,-0.083292 0.5423782,-0.074208 0.6269232,0.010504 0.037413,0.03748 0.2403372,0.3043557 0.4509412,0.5930476 0.210604,0.2886926 0.3998034,0.5186291 0.4204444,0.510971 0.02064,-0.00769 0.2305747,-0.2687393 0.4665207,-0.5801782 l 0.428992,-0.5662541 0.295939,-0.015435 c 0.200125,-0.010438 0.29594,0.00401 0.29594,0.044675 0,0.033059 -0.255943,0.4067416 -0.568761,0.8304014 l -0.568761,0.7702898 0.561062,0.7551038 c 0.308584,0.4153073 0.577475,0.7840592 0.597537,0.8194502 0.02754,0.04857 -0.04419,0.06435 -0.29254,0.06435 H 10.878373 L 10.447075,9.5841295 C 10.20986,9.2585335 10.003285,8.9929204 9.9880193,8.9938789 9.9727513,8.9947982 9.7641709,9.2612344 9.524503,9.585871 l -0.4357587,0.59025 H 8.7621706 c -0.2475742,0 -0.317215,-0.01557 -0.2878862,-0.06435 z M 12.302492,8.5288382 V 6.8815549 h 0.257388 0.257388 V 8.5288382 10.17612 H 12.55988 12.302492 Z m 0.03268,-2.5261388 c -0.187579,-0.1475482 -0.187579,-0.4112316 0,-0.5587807 0.0746,-0.058681 0.175717,-0.1066913 0.224707,-0.1066913 0.172657,0 0.360343,0.2010915 0.360343,0.3860821 0,0.1849897 -0.187686,0.3860821 -0.360343,0.3860821 -0.04899,0 -0.150107,-0.04801 -0.224707,-0.1066922 z"
       id="path3860" /></g></svg>
