<?xml version="1.0" encoding="UTF-8" standalone="no"?>
<!-- Created with Inkscape (http://www.inkscape.org/) -->

<svg
   width="210mm"
   height="297mm"
   viewBox="0 0 210 297"
   version="1.1"
   id="svg5"
   xml:space="preserve"
   inkscape:version="1.2.2 (732a01da63, 2022-12-09)"
   sodipodi:docname="ExitButton.svg"
   xmlns:inkscape="http://www.inkscape.org/namespaces/inkscape"
   xmlns:sodipodi="http://sodipodi.sourceforge.net/DTD/sodipodi-0.dtd"
   xmlns="http://www.w3.org/2000/svg"
   xmlns:svg="http://www.w3.org/2000/svg"><sodipodi:namedview
     id="namedview7"
     pagecolor="#ffffff"
     bordercolor="#000000"
     borderopacity="0.25"
     inkscape:showpageshadow="2"
     inkscape:pageopacity="0.0"
     inkscape:pagecheckerboard="0"
     inkscape:deskcolor="#d1d1d1"
     inkscape:document-units="mm"
     showgrid="false"
     showguides="false"
     inkscape:zoom="5.1754899"
     inkscape:cx="105.40065"
     inkscape:cy="103.37186"
     inkscape:window-width="3840"
     inkscape:window-height="2066"
     inkscape:window-x="-11"
     inkscape:window-y="-11"
     inkscape:window-maximized="1"
     inkscape:current-layer="layer1" /><defs
     id="defs2" /><g
     inkscape:label="Layer 1"
     inkscape:groupmode="layer"
     id="layer1"><rect
       style="fill:#e3e3e2;fill-opacity:1;stroke-width:0.187865"
       id="rect2603"
       width="56.356251"
       height="16.139999"
       x="0"
       y="0.036148977"
       rx="0.67399573" /><path
       style="fill:#000000;stroke-width:0.0249574"
       d="m 47.872205,13.424352 c -2.327495,-1.218508 -2.147458,-1.120028 -2.180572,-1.192722 -0.0417,-0.09155 -0.0401,-8.8408851 0.0018,-8.9325091 0.06536,-0.143453 -0.09609,-0.136568 3.202577,-0.136568 2.186307,0 3.050452,0.0078 3.089719,0.02788 0.02997,0.01533 0.07389,0.05183 0.09763,0.08111 0.03993,0.04927 0.04313,0.181124 0.04366,1.770976 l 5.6e-4,1.717743 -0.07291,0.07295 c -0.09388,0.09388 -0.218584,0.09886 -0.318735,0.01273 l -0.06998,-0.06022 -0.01245,-1.555771 -0.01245,-1.55577 -2.344879,-0.0064 c -1.358869,-0.0037 -2.334848,0.0029 -2.321039,0.0157 0.01316,0.01213 0.675224,0.361827 1.471371,0.777098 0.796138,0.415272 1.475604,0.78189 1.509927,0.814708 l 0.06242,0.05966 0.0062,3.269204 0.0062,3.2692031 0.804604,-0.0066 0.804603,-0.0066 0.0062,-1.57972 c 0.0071,-1.7328241 7.56e-4,-1.6629001 0.156527,-1.7274421 0.09369,-0.0388 0.18723,-0.01488 0.263443,0.06735 l 0.06029,0.06503 v 1.7574931 c 0,1.15767 -0.0089,1.773882 -0.0257,1.805511 -0.06331,0.11829 -0.109736,0.123405 -1.120234,0.123405 h -0.94877 l -0.0071,0.937974 -0.0071,0.937973 -0.08154,0.0728 c -0.04926,0.04402 -0.108491,0.07237 -0.14975,0.07172 -0.03984,-6.59e-4 -0.837326,-0.403721 -1.915083,-0.967958 z m 5.301529,-3.5463331 c -0.07905,-0.07909 -0.09574,-0.187162 -0.04384,-0.284331 0.01601,-0.02998 0.263106,-0.387408 0.549065,-0.794279 0.285967,-0.406871 0.519934,-0.752219 0.519934,-0.767441 0,-0.02001 -0.508535,-0.02767 -1.836291,-0.02767 h -1.836291 l -0.07292,-0.07295 c -0.05397,-0.05401 -0.073,-0.09663 -0.073,-0.164142 0,-0.06752 0.01894,-0.110133 0.073,-0.164143 l 0.07292,-0.07295 h 1.836291 c 1.211502,0 1.836291,-0.0085 1.836291,-0.02504 0,-0.01377 -0.23402,-0.35912 -0.520032,-0.767441 -0.286021,-0.408322 -0.533103,-0.766934 -0.549064,-0.796916 -0.0457,-0.08584 -0.03432,-0.198624 0.02712,-0.269384 0.07247,-0.08344 0.218913,-0.109644 0.303378,-0.0543 0.04686,0.0307 1.024201,1.387344 1.426004,1.979435 0.07789,0.114755 0.07789,0.226721 0,0.341476 -0.362723,0.534503 -1.375382,1.945229 -1.417539,1.974755 -0.08976,0.06287 -0.211843,0.04853 -0.295046,-0.03467 z"
       id="path5629" /><path
       style="fill:#000000;stroke-width:0.0373676"
       d="m 12.24332,10.481322 c -0.278521,-0.07343 -0.477556,-0.282253 -0.538104,-0.5645716 -0.02503,-0.1166972 -0.04109,-0.658462 -0.04109,-1.3855506 V 7.3372743 H 11.477282 11.290443 V 7.1317512 6.9262292 h 0.186839 0.186839 V 6.5338686 6.1415079 h 0.24289 0.242889 v 0.3923607 0.3923606 h 0.392361 0.39236 v 0.2042155 0.2042145 l -0.383018,0.010687 -0.383019,0.010687 v 1.1957653 c 0,1.1379123 0.0037,1.2020927 0.07658,1.3265514 0.0975,0.1665141 0.267479,0.2303891 0.536502,0.2016101 0.111121,-0.01189 0.224625,-0.03029 0.252231,-0.04087 0.0383,-0.01469 0.0502,0.02988 0.0502,0.188053 0,0.114024 -0.01699,0.21782 -0.03777,0.230658 -0.06091,0.03765 -0.680642,0.05586 -0.803005,0.0236 z M 4.3774251,8.1219945 V 5.7678318 H 5.5358228 6.6942205 V 5.9920373 6.2162438 H 5.7966533 4.8990861 l 0.010088,0.794063 0.010088,0.7940629 0.7006439,0.010142 0.7006436,0.010142 V 8.0480362 8.2714171 H 5.6105587 4.9005731 V 9.1495577 10.027698 H 5.7973969 6.694221 v 0.224206 0.224206 H 5.5358228 4.3774251 Z m 2.7278397,2.3309545 c 0,-0.01465 0.2129958,-0.422373 0.4733234,-0.9060643 0.260328,-0.4836926 0.4733236,-0.8981817 0.4733236,-0.9210878 0,-0.022902 -0.1961792,-0.4038311 -0.4359557,-0.8465035 -0.2397756,-0.4426712 -0.435956,-0.8157039 -0.435956,-0.8289607 0,-0.01325 0.1148149,-0.024101 0.2551438,-0.024101 H 7.6902885 L 8.0049131,7.564996 C 8.1779562,7.9163168 8.3321773,8.211572 8.347625,8.2211188 8.363078,8.2307188 8.5174902,7.943223 8.6907743,7.5823544 l 0.3150619,-0.656123 h 0.2641635 c 0.1452894,0 0.2641634,0.00796 0.2641634,0.017656 0,0.00971 -0.1843096,0.3521899 -0.4095783,0.7610616 C 8.8993171,8.1138196 8.696058,8.4899386 8.672899,8.5407673 8.634915,8.6241183 8.678789,8.7213025 9.1198441,9.5317085 9.3888246,10.025897 9.608899,10.440566 9.608899,10.453194 c 0,0.01263 -0.1176253,0.02297 -0.2613902,0.02297 H 9.0861198 L 8.7179488,9.7405578 8.3497789,9.0049531 7.979754,9.731215 7.609728,10.457477 7.3574965,10.468524 c -0.1387274,0.0061 -0.2522317,-9.32e-4 -0.2522317,-0.01557 z M 10.169414,8.7011937 V 6.9262292 h 0.261573 0.261574 v 1.7749645 1.7749643 h -0.261574 -0.261573 z m 0,-2.7278399 V 5.6183612 h 0.261573 0.261574 v 0.3549926 0.3549927 h -0.261574 -0.261573 z"
       id="path726" /></g></svg>
