<svg width="102" height="39" viewBox="0 0 102 39" fill="none" xmlns="http://www.w3.org/2000/svg">
<rect width="102" height="39" rx="5" fill="#EEF4FB" fill-opacity="0.86"/>
<path d="M37.1623 27H35.3023V12.6H42.7223V14.16H37.1623V19.38H41.4223V20.94H37.1623V27ZM51.0541 19V24.2C51.0541 26.1 49.7141 27.2 47.3341 27.2C44.9341 27.2 43.5941 26.1 43.5941 24.2V19C43.5941 17.1 44.9341 16 47.3341 16C49.7141 16 51.0541 17.1 51.0541 19ZM45.3541 19.42V23.78C45.3541 25.04 46.0141 25.6 47.3341 25.6C48.5941 25.6 49.2941 25.04 49.2941 23.78V19.42C49.2941 18.16 48.6141 17.6 47.3341 17.6C46.0141 17.6 45.3541 18.16 45.3541 19.42ZM54.8426 16.12L55.0226 16.92C55.9026 16.44 56.9426 16 58.0426 16C59.7426 16 60.5426 17.04 60.5426 18.74V27H58.7826V19.22C58.7826 18.1 58.2826 17.62 57.4426 17.62C56.7026 17.62 55.8426 18.02 55.1826 18.38V27H53.4226V16.12H54.8426ZM62.2315 17.64V16.2H63.4515L63.7915 13.4H65.1915V16.2H67.5115V17.64H65.1915V23.96C65.1915 25.06 65.6115 25.62 66.6915 25.62C67.1315 25.62 67.7115 25.52 67.9115 25.44V26.92C67.5915 27.02 66.8715 27.12 66.2915 27.12C64.2315 27.12 63.4315 26.08 63.4315 24.26V17.64H62.2315Z" fill="#181818"/>
</svg>
