<svg width="137" height="61" viewBox="0 0 137 61" fill="none" xmlns="http://www.w3.org/2000/svg">
<rect width="137" height="61" rx="5" fill="#747373"/>
<path d="M28.8064 40H27.6304L27.1744 38.824C26.3824 39.736 25.0384 40.24 23.3344 40.24C20.2384 40.24 18.3184 38.872 18.3184 36.496V26.224C18.3184 23.848 20.3584 22.48 23.6224 22.48C26.7904 22.48 28.8064 23.848 28.8064 26.224V28.96H26.6704V26.632C26.6704 25.12 25.4944 24.352 23.6224 24.352C21.5104 24.352 20.5504 25.12 20.5504 26.632V35.992C20.5504 37.6 21.5104 38.368 23.6224 38.368C25.4464 38.368 26.5984 37.648 26.6704 36.112V33.256H23.6224V31.384H28.8064V40ZM33.6898 36.088C33.6898 37.72 34.4098 38.416 35.9938 38.416C37.4818 38.416 38.4178 37.72 38.4178 36.088V35.68H40.5298V36.496C40.5298 38.872 38.8258 40.24 35.9938 40.24C33.1858 40.24 31.5778 38.872 31.5778 36.496V30.544C31.5778 28.168 33.1858 26.8 35.9938 26.8C38.8258 26.8 40.5298 28.168 40.5298 30.544V34.384H33.6898V36.088ZM33.6898 30.952V32.68H38.4178V30.952C38.4178 29.32 37.4818 28.624 35.9938 28.624C34.4098 28.624 33.6898 29.32 33.6898 30.952ZM51.9908 30.4V36.64C51.9908 38.92 50.3828 40.24 47.5268 40.24C44.6468 40.24 43.0388 38.92 43.0388 36.64V30.4C43.0388 28.12 44.6468 26.8 47.5268 26.8C50.3828 26.8 51.9908 28.12 51.9908 30.4ZM45.1508 30.904V36.136C45.1508 37.648 45.9428 38.32 47.5268 38.32C49.0388 38.32 49.8788 37.648 49.8788 36.136V30.904C49.8788 29.392 49.0628 28.72 47.5268 28.72C45.9428 28.72 45.1508 29.392 45.1508 30.904ZM56.7289 36.136C56.7289 37.648 57.5929 38.32 59.1289 38.32C60.4969 38.32 61.4569 37.648 61.4569 36.136V34.912H63.4729V36.64C63.4729 38.92 61.8889 40.24 59.1289 40.24C56.2249 40.24 54.6169 38.92 54.6169 36.64V30.4C54.6169 28.12 56.2249 26.8 59.1289 26.8C61.8889 26.8 63.4729 28.12 63.4729 30.4V32.272H61.4569V30.904C61.4569 29.392 60.5929 28.72 59.1289 28.72C57.5209 28.72 56.7289 29.392 56.7289 30.904V36.136ZM68.0726 36.088C68.0726 37.72 68.7926 38.416 70.3766 38.416C71.8646 38.416 72.8006 37.72 72.8006 36.088V35.68H74.9126V36.496C74.9126 38.872 73.2086 40.24 70.3766 40.24C67.5686 40.24 65.9606 38.872 65.9606 36.496V30.544C65.9606 28.168 67.5686 26.8 70.3766 26.8C73.2086 26.8 74.9126 28.168 74.9126 30.544V34.384H68.0726V36.088ZM68.0726 30.952V32.68H72.8006V30.952C72.8006 29.32 71.8646 28.624 70.3766 28.624C68.7926 28.624 68.0726 29.32 68.0726 30.952ZM79.3416 26.944L79.5576 27.904C80.6136 27.328 81.8616 26.8 83.1816 26.8C85.2216 26.8 86.1816 28.048 86.1816 30.088V40H84.0696V30.664C84.0696 29.32 83.4696 28.744 82.4616 28.744C81.5736 28.744 80.5416 29.224 79.7496 29.656V40H77.6376V26.944H79.3416ZM88.2083 28.768V27.04H89.6723L90.0803 23.68H91.7603V27.04H94.5443V28.768H91.7603V36.352C91.7603 37.672 92.2643 38.344 93.5603 38.344C94.0883 38.344 94.7843 38.224 95.0243 38.128V39.904C94.6403 40.024 93.7763 40.144 93.0803 40.144C90.6083 40.144 89.6483 38.896 89.6483 36.712V28.768H88.2083ZM104.248 32.176H102.28V29.728C102.28 28.96 101.848 28.672 101.272 28.672C100.432 28.672 99.6638 29.248 98.9918 29.824V40H96.8798V26.944H98.5838L98.7998 28.144C99.6638 27.424 100.648 26.8 102.016 26.8C103.504 26.8 104.248 27.808 104.248 29.368V32.176ZM108.464 25.072H106.184V22.36H108.464V25.072ZM108.344 40H106.232V27.04H108.344V40ZM113.354 36.136C113.354 37.648 114.218 38.32 115.754 38.32C117.122 38.32 118.082 37.648 118.082 36.136V34.912H120.098V36.64C120.098 38.92 118.514 40.24 115.754 40.24C112.85 40.24 111.242 38.92 111.242 36.64V30.4C111.242 28.12 112.85 26.8 115.754 26.8C118.514 26.8 120.098 28.12 120.098 30.4V32.272H118.082V30.904C118.082 29.392 117.218 28.72 115.754 28.72C114.146 28.72 113.354 29.392 113.354 30.904V36.136Z" fill="white"/>
</svg>
