<?xml version="1.0" encoding="UTF-8" standalone="no"?>
<!-- Created with Inkscape (http://www.inkscape.org/) -->

<svg
   width="210mm"
   height="297mm"
   viewBox="0 0 210 297"
   version="1.1"
   id="svg5"
   xml:space="preserve"
   inkscape:version="1.2.2 (732a01da63, 2022-12-09)"
   sodipodi:docname="InteractiveScaleButton.svg"
   xmlns:inkscape="http://www.inkscape.org/namespaces/inkscape"
   xmlns:sodipodi="http://sodipodi.sourceforge.net/DTD/sodipodi-0.dtd"
   xmlns="http://www.w3.org/2000/svg"
   xmlns:svg="http://www.w3.org/2000/svg"><sodipodi:namedview
     id="namedview7"
     pagecolor="#ffffff"
     bordercolor="#000000"
     borderopacity="0.25"
     inkscape:showpageshadow="2"
     inkscape:pageopacity="0.0"
     inkscape:pagecheckerboard="0"
     inkscape:deskcolor="#d1d1d1"
     inkscape:document-units="mm"
     showgrid="false"
     showguides="true"
     inkscape:zoom="5.1754899"
     inkscape:cx="266.54481"
     inkscape:cy="173.70336"
     inkscape:window-width="3840"
     inkscape:window-height="2066"
     inkscape:window-x="-11"
     inkscape:window-y="-11"
     inkscape:window-maximized="1"
     inkscape:current-layer="layer1" /><defs
     id="defs2" /><g
     inkscape:label="Layer 1"
     inkscape:groupmode="layer"
     id="layer1"><g
       id="g584"
       transform="translate(-5.3710934e-8,-16.256914)"><rect
         width="56.356251"
         height="16.139584"
         rx="1.3229166"
         fill="#e3e3e2"
         id="rect182-0"
         x="5.3710934e-08"
         y="16.256914"
         style="stroke-width:0.264583" /><path
         style="fill:#000000;stroke-width:0.0522062"
         d="m 10.534942,26.788441 c -0.276451,-0.0717 -0.398157,-0.166599 -0.499253,-0.389255 -0.08794,-0.193682 -0.09895,-0.353947 -0.09997,-1.454415 l -0.0012,-1.236748 -0.195774,-0.0162 C 9.553663,23.676503 9.542152,23.664983 9.526828,23.479847 l -0.0162,-0.195774 h 0.211976 0.211978 v -0.391547 -0.391547 h 0.232641 0.23264 l 0.01534,0.378495 0.01534,0.378496 0.378495,0.01534 0.378496,0.01534 v 0.206539 0.206537 h -0.395818 -0.395821 l 0.01732,1.187694 c 0.01199,0.821943 0.0373,1.222579 0.08218,1.300976 0.08657,0.15122 0.366824,0.237571 0.632923,0.19502 l 0.21583,-0.03451 v 0.186313 c 0,0.102472 -0.02031,0.198867 -0.04514,0.21421 -0.08481,0.05242 -0.607143,0.07772 -0.764059,0.03702 z m 1.887528,-0.02741 c -0.250649,-0.09323 -0.443966,-0.268385 -0.536893,-0.486474 -0.08922,-0.209397 -0.102283,-2.223975 -0.0159,-2.451975 0.146992,-0.387957 0.518862,-0.587897 1.096545,-0.589573 0.329061,-8.98e-4 0.442696,0.02289 0.678682,0.142421 0.427507,0.216536 0.518373,0.431032 0.518373,1.223653 v 0.614209 l -0.926662,0.01425 -0.926661,0.01425 -0.01413,0.339341 c -0.02551,0.612707 0.192494,0.854526 0.739724,0.820539 0.26571,-0.01651 0.32761,-0.04113 0.451318,-0.179586 0.0801,-0.08964 0.159338,-0.254972 0.17955,-0.374603 0.03597,-0.212897 0.03752,-0.214143 0.266519,-0.214143 h 0.23034 v 0.223867 c 0,0.336319 -0.187412,0.66374 -0.467719,0.81714 -0.290133,0.158777 -0.957134,0.204188 -1.273091,0.08668 z m 1.262079,-2.118214 c 0.03081,-0.324289 -0.04342,-0.626314 -0.195887,-0.796949 -0.125691,-0.140672 -0.186471,-0.165031 -0.45311,-0.181591 -0.543576,-0.03376 -0.751472,0.197228 -0.751619,0.835105 l -8.1e-5,0.353908 0.691733,-0.01457 0.691734,-0.01457 z m 4.095324,2.142771 c -0.44579,-0.111683 -0.608183,-0.390821 -0.58061,-0.998012 0.03225,-0.710238 0.280573,-0.89674 1.236859,-0.928951 l 0.592298,-0.01995 -0.01803,-0.468618 c -0.01686,-0.438291 -0.02751,-0.476772 -0.164507,-0.594581 -0.116357,-0.100058 -0.205414,-0.125961 -0.433075,-0.125961 -0.350376,0 -0.508477,0.129333 -0.561208,0.45909 l -0.03512,0.219592 h -0.241037 -0.241037 l 0.03605,-0.274082 c 0.07634,-0.580403 0.392156,-0.822249 1.073731,-0.822249 0.487009,0 0.803472,0.139016 0.948904,0.416835 0.08563,0.16357 0.09522,0.330664 0.09522,1.65755 v 1.475642 h -0.208825 c -0.174021,0 -0.208825,-0.0174 -0.208825,-0.104412 0,-0.05743 -0.0059,-0.1044 -0.01305,-0.104386 -0.0071,1.4e-5 -0.130516,0.04462 -0.274083,0.09913 -0.314287,0.119319 -0.773064,0.171139 -1.003663,0.113368 z m 1.044801,-0.491178 0.197757,-0.08312 -0.01503,-0.484744 c -0.0175,-0.564374 0.006,-0.547102 -0.660177,-0.484674 -0.523469,0.04906 -0.633911,0.15364 -0.633911,0.600302 0,0.272352 0.01937,0.337349 0.134935,0.45292 0.123378,0.123379 0.162502,0.132686 0.456806,0.108681 0.177028,-0.01444 0.41086,-0.06366 0.519626,-0.10937 z m 2.107422,0.463538 c -0.229389,-0.08179 -0.428646,-0.251722 -0.535125,-0.45637 -0.114605,-0.220267 -0.104974,-2.334712 0.01176,-2.580696 0.133092,-0.280472 0.471417,-0.450073 0.952925,-0.477697 0.899303,-0.0516 1.268181,0.245775 1.279494,1.031459 l 0.0056,0.392893 -0.214166,0.01567 -0.214165,0.01567 -0.034,-0.325312 c -0.01867,-0.178922 -0.07094,-0.381755 -0.116146,-0.45074 -0.232467,-0.354788 -0.955658,-0.352345 -1.172914,0.004 -0.09017,0.147884 -0.101525,0.267185 -0.101698,1.068702 -2.17e-4,1.072488 0.03542,1.204575 0.360263,1.33455 0.263595,0.105469 0.424517,0.108824 0.652419,0.0136 0.238786,-0.09977 0.335373,-0.257917 0.375809,-0.615329 l 0.03437,-0.303797 h 0.235719 0.235722 l -0.02916,0.385465 c -0.04339,0.573631 -0.204917,0.809782 -0.659338,0.963913 -0.238714,0.08097 -0.819915,0.07228 -1.067389,-0.01596 z m 3.150378,0.01479 c -0.100497,-0.02856 -0.226239,-0.091 -0.279428,-0.138735 -0.227154,-0.203861 -0.242635,-0.309177 -0.242635,-1.650632 V 23.701725 H 23.351586 23.142761 V 23.4929 23.284075 h 0.208825 0.208825 V 22.892527 22.50098 h 0.234929 0.234928 v 0.391547 0.391548 h 0.391547 0.391547 v 0.208825 0.208825 h -0.394229 -0.39423 l 0.01573,1.225498 c 0.01536,1.196297 0.01857,1.228329 0.134879,1.344313 0.09906,0.09878 0.171667,0.117841 0.430702,0.113042 l 0.311557,-0.0057 v 0.194448 c 0,0.191748 -0.0034,0.194908 -0.242215,0.227647 -0.297021,0.04071 -0.361604,0.03764 -0.593086,-0.02816 z m 6.194548,-0.0117 c -0.250649,-0.09323 -0.443967,-0.268393 -0.536893,-0.486481 -0.103689,-0.243347 -0.102233,-2.310287 0.0018,-2.510173 0.18799,-0.361315 0.53851,-0.532522 1.090252,-0.532522 0.524303,0 0.897609,0.181749 1.068216,0.520074 0.101998,0.202267 0.117464,0.313968 0.117464,0.848352 v 0.615413 h -0.939712 -0.939714 l 1.05e-4,0.352393 c 1.57e-4,0.636234 0.20851,0.86732 0.751619,0.833589 0.264389,-0.01642 0.327875,-0.04143 0.448839,-0.176811 0.08034,-0.08991 0.155799,-0.250914 0.175578,-0.374603 l 0.03467,-0.216918 h 0.234312 0.234311 v 0.218447 c 0,0.332793 -0.176546,0.645742 -0.45701,0.810106 -0.194121,0.113761 -0.316274,0.142732 -0.660617,0.156676 -0.277081,0.01122 -0.491532,-0.0086 -0.623181,-0.05755 z m 1.262752,-2.063662 c 0.041,-0.29031 -0.05118,-0.688802 -0.197113,-0.852127 -0.125078,-0.139987 -0.186201,-0.16443 -0.452557,-0.180973 -0.543576,-0.03376 -0.751473,0.197228 -0.751619,0.835105 l -8.1e-5,0.353908 0.691733,-0.01457 c 0.687997,-0.01449 0.69183,-0.01525 0.709637,-0.141346 z M 5.236,24.458712 v -2.323181 h 0.261031 0.261032 v 2.323181 2.32318 H 5.497031 5.236 Z m 1.461776,0.545014 v -1.778165 l 0.195775,0.0162 c 0.157256,0.01301 0.199055,0.03931 0.212456,0.133667 0.02063,0.14528 0.0189,0.145332 0.400968,-0.01206 0.584515,-0.240784 1.141354,-0.143904 1.339885,0.233117 0.08648,0.164226 0.09579,0.327876 0.09579,1.683653 v 1.501745 H 8.70772 8.472792 v -1.332937 c 0,-1.467355 -0.03033,-1.649597 -0.291052,-1.748723 -0.162363,-0.06173 -0.426772,-0.02174 -0.740023,0.111928 l -0.221877,0.09468 v 1.437528 1.437528 H 6.958808 6.697776 Z m 8.260954,0.0162 0.01374,-1.761962 h 0.182007 c 0.140924,0 0.186259,0.02357 0.200841,0.104412 0.03052,0.169211 0.10164,0.209288 0.205149,0.115612 0.153363,-0.138791 0.462314,-0.246127 0.708443,-0.246127 0.450156,0 0.628736,0.2955 0.599451,0.991919 l -0.01647,0.391547 -0.215014,0.01572 -0.215015,0.01572 -0.02416,-0.417413 c -0.01408,-0.243437 -0.05402,-0.453392 -0.09579,-0.503733 -0.09572,-0.11533 -0.366877,-0.07017 -0.631965,0.105262 l -0.201507,0.133351 v 1.40883 1.408828 h -0.261731 -0.261726 z m 10.533314,0.01306 v -1.748912 h 0.234928 0.234929 v 1.74891 1.748911 h -0.234929 -0.234928 z m 1.622097,0.06487 c -0.270742,-0.925797 -0.502311,-1.712634 -0.514597,-1.748526 -0.01595,-0.0466 0.05387,-0.06525 0.244278,-0.06525 0.14664,0 0.266617,0.01219 0.266617,0.02708 0,0.0515 0.73792,2.816488 0.756668,2.835237 0.01035,0.01035 0.03996,-0.05974 0.06581,-0.155751 0.02585,-0.09601 0.197882,-0.744247 0.3823,-1.440523 l 0.335308,-1.265958 0.247979,-4.5e-5 c 0.136389,-2.5e-5 0.247979,0.0149 0.247979,0.03316 0,0.01827 -0.22695,0.805274 -0.504331,1.748911 l -0.504333,1.715702 -0.26571,-3.74e-4 -0.265711,-3.76e-4 -0.492259,-1.683269 z m -1.674303,-2.753498 v -0.365444 h 0.287134 0.287135 v 0.365444 0.365444 h -0.287135 -0.287134 z"
         id="path530" /></g><path
       style="fill:#000000;stroke-width:0.0224465"
       d="M 43.422809,11.204184 V 9.8709759 l 0.512277,0.4976101 0.512277,0.49761 0.768443,-0.746754 0.768443,-0.7467531 0.347065,0.337378 0.347064,0.3373771 -0.768194,0.746996 -0.768194,0.746995 0.511897,0.497979 0.511897,0.497978 h -1.371487 -1.371488 z m 6.511231,0.83523 0.511897,-0.497979 -0.768194,-0.746995 -0.768194,-0.746996 0.347064,-0.3373771 0.347065,-0.337378 0.768443,0.7467531 0.768443,0.746754 0.512277,-0.49761 0.512277,-0.4976101 v 1.3332081 1.333208 H 50.79363 49.422143 Z m -4.718455,-5.5825091 -0.768139,-0.7467 -0.512318,0.497651 -0.512319,0.49765 v -1.333208 -1.333208 h 1.371488 1.371487 l -0.511897,0.497978 -0.511897,0.497979 0.768285,0.747084 0.768285,0.747084 -0.347418,0.337194 -0.347418,0.337195 z m 4.041028,0.40951 -0.347064,-0.337377 0.768194,-0.746996 0.768194,-0.746995 -0.511897,-0.497979 -0.511897,-0.497978 h 1.371487 1.371488 v 1.333208 1.333208 l -0.512277,-0.49761 -0.512277,-0.49761 -0.768443,0.746754 -0.768443,0.746753 z"
       id="path1030" /></g></svg>
