<svg width="213" height="61" viewBox="0 0 213 61" fill="none" xmlns="http://www.w3.org/2000/svg">
<rect width="213" height="61" rx="5" fill="#E3E3E2"/>
<path d="M27.48 34.144H25.944L21.84 26.344L21.912 27.928V40H19.776V22.72H22.104L26.712 31.48L31.344 22.72H33.672V40H31.536V27.952L31.608 26.392L27.48 34.144ZM45.6626 30.4V36.64C45.6626 38.92 44.0546 40.24 41.1986 40.24C38.3186 40.24 36.7106 38.92 36.7106 36.64V30.4C36.7106 28.12 38.3186 26.8 41.1986 26.8C44.0546 26.8 45.6626 28.12 45.6626 30.4ZM38.8226 30.904V36.136C38.8226 37.648 39.6146 38.32 41.1986 38.32C42.7106 38.32 43.5506 37.648 43.5506 36.136V30.904C43.5506 29.392 42.7346 28.72 41.1986 28.72C39.6146 28.72 38.8226 29.392 38.8226 30.904ZM57.2408 30.4V36.64C57.2408 38.92 55.6328 40.24 52.7768 40.24C49.8968 40.24 48.2888 38.92 48.2888 36.64V30.4C48.2888 28.12 49.8968 26.8 52.7768 26.8C55.6328 26.8 57.2408 28.12 57.2408 30.4ZM50.4008 30.904V36.136C50.4008 37.648 51.1928 38.32 52.7768 38.32C54.2888 38.32 55.1288 37.648 55.1288 36.136V30.904C55.1288 29.392 54.3128 28.72 52.7768 28.72C51.1928 28.72 50.4008 29.392 50.4008 30.904ZM61.7869 26.944L62.0029 27.904C63.0589 27.328 64.3069 26.8 65.6269 26.8C67.6669 26.8 68.6269 28.048 68.6269 30.088V40H66.5149V30.664C66.5149 29.32 65.9149 28.744 64.9069 28.744C64.0189 28.744 62.9869 29.224 62.1949 29.656V40H60.0829V26.944H61.7869ZM78.7971 40H76.5651V22.72H80.7171C84.6531 22.72 86.1411 24.472 86.1411 27.424V28.984C86.1411 31.72 84.6531 33.352 80.7171 33.352H78.7971V40ZM80.8371 24.592H78.7971V31.48H80.7651C82.9011 31.48 83.9091 30.664 83.9091 28.72V27.544C83.9091 25.504 82.9011 24.592 80.8371 24.592ZM90.648 40H88.536V22.72H90.648V27.784C91.656 27.256 92.832 26.8 94.032 26.8C96.072 26.8 97.056 28.048 97.056 30.088V40H94.944V30.664C94.944 29.32 94.32 28.744 93.312 28.744C92.424 28.744 91.416 29.2 90.648 29.632V40ZM99.4427 36.88V36.304C99.4427 34.048 100.691 32.848 103.331 32.848H106.067V30.448C106.067 29.176 105.443 28.624 104.027 28.624C102.659 28.624 102.107 29.176 102.107 30.448V31.12H100.091V30.16C100.091 27.904 101.459 26.8 104.099 26.8C106.907 26.8 108.179 27.976 108.179 30.16V40.096H106.427L106.211 39.184C105.179 39.832 103.907 40.144 102.683 40.144C100.571 40.144 99.4427 39.016 99.4427 36.88ZM103.403 38.44C104.339 38.44 105.347 38.2 106.067 37.72V34.48H103.715C102.275 34.48 101.603 34.984 101.603 36.232V36.76C101.603 37.888 102.227 38.44 103.403 38.44ZM119.361 35.68V36.736C119.361 39.4 117.705 40.24 114.921 40.24C112.281 40.24 110.649 39.376 110.649 37.12V35.68H112.665V36.856C112.665 38.128 113.577 38.416 114.873 38.416C116.361 38.416 117.297 38.152 117.297 36.76V35.824C117.297 35.08 116.913 34.6 115.737 34.408L113.841 34.072C111.585 33.712 110.889 33.016 110.889 30.568V29.872C110.889 27.88 112.281 26.8 115.017 26.8C117.657 26.8 119.121 27.856 119.121 29.776V31.096H117.129V29.944C117.129 29.032 116.529 28.528 115.089 28.528C113.553 28.528 112.881 28.936 112.881 29.944V30.568C112.881 31.84 113.337 32.032 114.633 32.272L116.361 32.584C118.545 32.944 119.361 33.712 119.361 35.68ZM123.83 36.088C123.83 37.72 124.55 38.416 126.134 38.416C127.622 38.416 128.558 37.72 128.558 36.088V35.68H130.67V36.496C130.67 38.872 128.966 40.24 126.134 40.24C123.326 40.24 121.718 38.872 121.718 36.496V30.544C121.718 28.168 123.326 26.8 126.134 26.8C128.966 26.8 130.67 28.168 130.67 30.544V34.384H123.83V36.088ZM123.83 30.952V32.68H128.558V30.952C128.558 29.32 127.622 28.624 126.134 28.624C124.55 28.624 123.83 29.32 123.83 30.952ZM141.579 35.68V36.736C141.579 39.4 139.923 40.24 137.139 40.24C134.499 40.24 132.867 39.376 132.867 37.12V35.68H134.883V36.856C134.883 38.128 135.795 38.416 137.091 38.416C138.579 38.416 139.515 38.152 139.515 36.76V35.824C139.515 35.08 139.131 34.6 137.955 34.408L136.059 34.072C133.803 33.712 133.107 33.016 133.107 30.568V29.872C133.107 27.88 134.499 26.8 137.235 26.8C139.875 26.8 141.339 27.856 141.339 29.776V31.096H139.347V29.944C139.347 29.032 138.747 28.528 137.307 28.528C135.771 28.528 135.099 28.936 135.099 29.944V30.568C135.099 31.84 135.555 32.032 136.851 32.272L138.579 32.584C140.763 32.944 141.579 33.712 141.579 35.68Z" fill="#181818"/>
<path d="M173.214 14C166.728 16.404 163 22.6513 163 29.9741C163 39.3773 170.623 47 180.026 47C187.349 47 193.596 43.2724 196 36.7857C194.061 37.5656 191.945 37.9643 189.727 37.9643C180.433 37.9643 172.036 29.5671 172.036 20.2734C172.036 18.0552 172.434 15.9392 173.214 14Z" fill="black"/>
</svg>
