<svg width="36" height="36" viewBox="0 0 36 36" fill="none" xmlns="http://www.w3.org/2000/svg">
<rect width="36" height="36" rx="4" fill="#ED733D"/>
<path fill-rule="evenodd" clip-rule="evenodd" d="M18 11.125C14.203 11.125 11.125 14.203 11.125 18C11.125 21.797 14.203 24.875 18 24.875C21.797 24.875 24.875 21.797 24.875 18C24.875 14.203 21.797 11.125 18 11.125ZM9.875 18C9.875 13.5127 13.5127 9.875 18 9.875C22.4873 9.875 26.125 13.5127 26.125 18C26.125 22.4873 22.4873 26.125 18 26.125C13.5127 26.125 9.875 22.4873 9.875 18Z" fill="white"/>
<path fill-rule="evenodd" clip-rule="evenodd" d="M18.0346 14.9096C18.2787 14.6655 18.6744 14.6655 18.9185 14.9096L21.5669 17.5581C21.811 17.8021 21.811 18.1979 21.5669 18.4419L18.9185 21.0904C18.6744 21.3345 18.2787 21.3345 18.0346 21.0904C17.7905 20.8463 17.7905 20.4506 18.0346 20.2065L20.2411 18L18.0346 15.7935C17.7905 15.5494 17.7905 15.1537 18.0346 14.9096Z" fill="white"/>
<path fill-rule="evenodd" clip-rule="evenodd" d="M14.25 18C14.25 17.6548 14.5298 17.375 14.875 17.375H21.125C21.4702 17.375 21.75 17.6548 21.75 18C21.75 18.3452 21.4702 18.625 21.125 18.625H14.875C14.5298 18.625 14.25 18.3452 14.25 18Z" fill="white"/>
</svg>
