<svg width="137" height="61" viewBox="0 0 137 61" fill="none" xmlns="http://www.w3.org/2000/svg">
<rect width="137" height="61" rx="5" fill="#747373"/>
<path d="M52.008 41H49.776V23.72H53.928C57.864 23.72 59.352 25.472 59.352 28.424V29.984C59.352 32.72 57.864 34.352 53.928 34.352H52.008V41ZM54.048 25.592H52.008V32.48H53.976C56.112 32.48 57.12 31.664 57.12 29.72V28.544C57.12 26.504 56.112 25.592 54.048 25.592ZM63.8589 41H61.7469V23.72H63.8589V28.784C64.8669 28.256 66.0429 27.8 67.2429 27.8C69.2829 27.8 70.2669 29.048 70.2669 31.088V41H68.1549V31.664C68.1549 30.32 67.5309 29.744 66.5229 29.744C65.6349 29.744 64.6269 30.2 63.8589 30.632V41ZM72.6536 37.88V37.304C72.6536 35.048 73.9016 33.848 76.5416 33.848H79.2776V31.448C79.2776 30.176 78.6536 29.624 77.2376 29.624C75.8696 29.624 75.3176 30.176 75.3176 31.448V32.12H73.3016V31.16C73.3016 28.904 74.6696 27.8 77.3096 27.8C80.1176 27.8 81.3896 28.976 81.3896 31.16V41.096H79.6376L79.4216 40.184C78.3896 40.832 77.1176 41.144 75.8936 41.144C73.7816 41.144 72.6536 40.016 72.6536 37.88ZM76.6136 39.44C77.5496 39.44 78.5576 39.2 79.2776 38.72V35.48H76.9256C75.4856 35.48 74.8136 35.984 74.8136 37.232V37.76C74.8136 38.888 75.4376 39.44 76.6136 39.44ZM92.5716 36.68V37.736C92.5716 40.4 90.9156 41.24 88.1316 41.24C85.4916 41.24 83.8596 40.376 83.8596 38.12V36.68H85.8756V37.856C85.8756 39.128 86.7876 39.416 88.0836 39.416C89.5716 39.416 90.5076 39.152 90.5076 37.76V36.824C90.5076 36.08 90.1236 35.6 88.9476 35.408L87.0516 35.072C84.7956 34.712 84.0996 34.016 84.0996 31.568V30.872C84.0996 28.88 85.4916 27.8 88.2276 27.8C90.8676 27.8 92.3316 28.856 92.3316 30.776V32.096H90.3396V30.944C90.3396 30.032 89.7396 29.528 88.2996 29.528C86.7636 29.528 86.0916 29.936 86.0916 30.944V31.568C86.0916 32.84 86.5476 33.032 87.8436 33.272L89.5716 33.584C91.7556 33.944 92.5716 34.712 92.5716 36.68ZM97.0414 37.088C97.0414 38.72 97.7614 39.416 99.3454 39.416C100.833 39.416 101.769 38.72 101.769 37.088V36.68H103.881V37.496C103.881 39.872 102.177 41.24 99.3454 41.24C96.5374 41.24 94.9294 39.872 94.9294 37.496V31.544C94.9294 29.168 96.5374 27.8 99.3454 27.8C102.177 27.8 103.881 29.168 103.881 31.544V35.384H97.0414V37.088ZM97.0414 31.952V33.68H101.769V31.952C101.769 30.32 100.833 29.624 99.3454 29.624C97.7614 29.624 97.0414 30.32 97.0414 31.952ZM114.79 36.68V37.736C114.79 40.4 113.134 41.24 110.35 41.24C107.71 41.24 106.078 40.376 106.078 38.12V36.68H108.094V37.856C108.094 39.128 109.006 39.416 110.302 39.416C111.79 39.416 112.726 39.152 112.726 37.76V36.824C112.726 36.08 112.342 35.6 111.166 35.408L109.27 35.072C107.014 34.712 106.318 34.016 106.318 31.568V30.872C106.318 28.88 107.71 27.8 110.446 27.8C113.086 27.8 114.55 28.856 114.55 30.776V32.096H112.558V30.944C112.558 30.032 111.958 29.528 110.518 29.528C108.982 29.528 108.31 29.936 108.31 30.944V31.568C108.31 32.84 108.766 33.032 110.062 33.272L111.79 33.584C113.974 33.944 114.79 34.712 114.79 36.68Z" fill="white"/>
<circle cx="26" cy="33" r="14" fill="white"/>
</svg>
