<svg width="137" height="61" viewBox="0 0 137 61" fill="none" xmlns="http://www.w3.org/2000/svg">
<rect width="137" height="61" rx="5" fill="#747373"/>
<path d="M37.2111 40H34.9791V22.72H39.1311C43.0671 22.72 44.5551 24.472 44.5551 27.424V28.984C44.5551 31.72 43.0671 33.352 39.1311 33.352H37.2111V40ZM39.2511 24.592H37.2111V31.48H39.1791C41.3151 31.48 42.3231 30.664 42.3231 28.72V27.544C42.3231 25.504 41.3151 24.592 39.2511 24.592ZM46.9501 22.72H49.0621V35.992C49.0621 37.552 49.4701 38.272 50.4541 38.272C50.7181 38.272 51.0541 38.248 51.2701 38.176V39.952C50.9101 40.072 50.5261 40.096 49.7101 40.096C47.8381 40.096 46.9501 39.04 46.9501 36.256V22.72ZM52.1849 36.88V36.304C52.1849 34.048 53.4329 32.848 56.0729 32.848H58.8089V30.448C58.8089 29.176 58.1849 28.624 56.7689 28.624C55.4009 28.624 54.8489 29.176 54.8489 30.448V31.12H52.8329V30.16C52.8329 27.904 54.2009 26.8 56.8409 26.8C59.6489 26.8 60.9209 27.976 60.9209 30.16V40.096H59.1689L58.9529 39.184C57.9209 39.832 56.6489 40.144 55.4249 40.144C53.3129 40.144 52.1849 39.016 52.1849 36.88ZM56.1449 38.44C57.0809 38.44 58.0889 38.2 58.8089 37.72V34.48H56.4569C55.0169 34.48 54.3449 34.984 54.3449 36.232V36.76C54.3449 37.888 54.9689 38.44 56.1449 38.44ZM65.6228 26.944L65.8388 27.904C66.8948 27.328 68.1428 26.8 69.4628 26.8C71.5028 26.8 72.4628 28.048 72.4628 30.088V40H70.3508V30.664C70.3508 29.32 69.7508 28.744 68.7428 28.744C67.8548 28.744 66.8228 29.224 66.0308 29.656V40H63.9188V26.944H65.6228ZM77.3929 36.088C77.3929 37.72 78.1129 38.416 79.6969 38.416C81.1849 38.416 82.1209 37.72 82.1209 36.088V35.68H84.2329V36.496C84.2329 38.872 82.5289 40.24 79.6969 40.24C76.8889 40.24 75.2809 38.872 75.2809 36.496V30.544C75.2809 28.168 76.8889 26.8 79.6969 26.8C82.5289 26.8 84.2329 28.168 84.2329 30.544V34.384H77.3929V36.088ZM77.3929 30.952V32.68H82.1209V30.952C82.1209 29.32 81.1849 28.624 79.6969 28.624C78.1129 28.624 77.3929 29.32 77.3929 30.952ZM85.9036 28.768V27.04H87.3676L87.7756 23.68H89.4556V27.04H92.2396V28.768H89.4556V36.352C89.4556 37.672 89.9596 38.344 91.2556 38.344C91.7836 38.344 92.4796 38.224 92.7196 38.128V39.904C92.3356 40.024 91.4716 40.144 90.7756 40.144C88.3036 40.144 87.3436 38.896 87.3436 36.712V28.768H85.9036ZM102.759 35.68V36.736C102.759 39.4 101.103 40.24 98.3191 40.24C95.6791 40.24 94.0471 39.376 94.0471 37.12V35.68H96.0631V36.856C96.0631 38.128 96.9751 38.416 98.2711 38.416C99.7591 38.416 100.695 38.152 100.695 36.76V35.824C100.695 35.08 100.311 34.6 99.1351 34.408L97.2391 34.072C94.9831 33.712 94.2871 33.016 94.2871 30.568V29.872C94.2871 27.88 95.6791 26.8 98.4151 26.8C101.055 26.8 102.519 27.856 102.519 29.776V31.096H100.527V29.944C100.527 29.032 99.9271 28.528 98.4871 28.528C96.9511 28.528 96.2791 28.936 96.2791 29.944V30.568C96.2791 31.84 96.7351 32.032 98.0311 32.272L99.7591 32.584C101.943 32.944 102.759 33.712 102.759 35.68Z" fill="white"/>
</svg>
