<svg width="213" height="61" viewBox="0 0 213 61" fill="none" xmlns="http://www.w3.org/2000/svg">
<rect width="213" height="61" rx="5" fill="#E3E3E2"/>
<path d="M22.008 40H19.776V22.72H23.928C27.864 22.72 29.352 24.472 29.352 27.424V28.984C29.352 31.72 27.864 33.352 23.928 33.352H22.008V40ZM24.048 24.592H22.008V31.48H23.976C26.112 31.48 27.12 30.664 27.12 28.72V27.544C27.12 25.504 26.112 24.592 24.048 24.592ZM31.7469 22.72H33.8589V35.992C33.8589 37.552 34.2669 38.272 35.2509 38.272C35.5149 38.272 35.8509 38.248 36.0669 38.176V39.952C35.7069 40.072 35.3229 40.096 34.5069 40.096C32.6349 40.096 31.7469 39.04 31.7469 36.256V22.72ZM36.9818 36.88V36.304C36.9818 34.048 38.2298 32.848 40.8698 32.848H43.6058V30.448C43.6058 29.176 42.9818 28.624 41.5658 28.624C40.1978 28.624 39.6458 29.176 39.6458 30.448V31.12H37.6298V30.16C37.6298 27.904 38.9978 26.8 41.6378 26.8C44.4458 26.8 45.7178 27.976 45.7178 30.16V40.096H43.9658L43.7498 39.184C42.7178 39.832 41.4458 40.144 40.2218 40.144C38.1098 40.144 36.9818 39.016 36.9818 36.88ZM40.9418 38.44C41.8778 38.44 42.8858 38.2 43.6058 37.72V34.48H41.2538C39.8138 34.48 39.1418 34.984 39.1418 36.232V36.76C39.1418 37.888 39.7658 38.44 40.9418 38.44ZM50.4197 26.944L50.6357 27.904C51.6917 27.328 52.9397 26.8 54.2597 26.8C56.2997 26.8 57.2597 28.048 57.2597 30.088V40H55.1477V30.664C55.1477 29.32 54.5477 28.744 53.5397 28.744C52.6517 28.744 51.6197 29.224 50.8277 29.656V40H48.7157V26.944H50.4197ZM62.1898 36.088C62.1898 37.72 62.9098 38.416 64.4938 38.416C65.9818 38.416 66.9178 37.72 66.9178 36.088V35.68H69.0298V36.496C69.0298 38.872 67.3258 40.24 64.4938 40.24C61.6858 40.24 60.0778 38.872 60.0778 36.496V30.544C60.0778 28.168 61.6858 26.8 64.4938 26.8C67.3258 26.8 69.0298 28.168 69.0298 30.544V34.384H62.1898V36.088ZM62.1898 30.952V32.68H66.9178V30.952C66.9178 29.32 65.9818 28.624 64.4938 28.624C62.9098 28.624 62.1898 29.32 62.1898 30.952ZM70.7004 28.768V27.04H72.1644L72.5724 23.68H74.2524V27.04H77.0364V28.768H74.2524V36.352C74.2524 37.672 74.7564 38.344 76.0524 38.344C76.5804 38.344 77.2764 38.224 77.5164 38.128V39.904C77.1324 40.024 76.2684 40.144 75.5724 40.144C73.1004 40.144 72.1404 38.896 72.1404 36.712V28.768H70.7004ZM89.052 40H84.276V22.72H88.62C91.668 22.72 93.612 23.92 93.612 26.68V27.664C93.612 29.128 92.82 30.064 91.5 30.544C93.372 31 94.332 32.104 94.332 34.024V35.728C94.332 38.632 92.268 40 89.052 40ZM89.052 31.624H86.508V38.224H89.052C90.924 38.224 92.1 37.336 92.1 35.464V34.096C92.1 32.416 90.924 31.624 89.052 31.624ZM88.62 24.496H86.508V29.944H88.62C90.396 29.944 91.38 29.176 91.38 27.592V26.968C91.38 25.264 90.42 24.496 88.62 24.496ZM105.471 40H103.767L103.575 39.088C102.495 39.688 101.223 40.24 99.8792 40.24C97.8392 40.24 96.8552 38.92 96.8552 36.808V27.04H98.9672V36.232C98.9672 37.672 99.5672 38.296 100.599 38.296C101.559 38.296 102.519 37.84 103.359 37.36V27.04H105.471V40ZM110.808 25.072H108.528V22.36H110.808V25.072ZM110.688 40H108.576V27.04H110.688V40ZM113.802 22.72H115.914V35.992C115.914 37.552 116.322 38.272 117.306 38.272C117.57 38.272 117.906 38.248 118.122 38.176V39.952C117.762 40.072 117.378 40.096 116.562 40.096C114.69 40.096 113.802 39.04 113.802 36.256V22.72ZM128.3 40H126.428L126.212 39.232C125.18 39.856 124.1 40.168 123.068 40.168C120.764 40.168 119.516 38.704 119.516 36.568V30.256C119.516 28.12 120.788 26.8 123.02 26.8C124.22 26.8 125.228 27.088 126.188 27.616V22.72H128.3V40ZM123.596 38.248C124.436 38.248 125.252 37.984 126.188 37.456V29.584C125.228 28.96 124.556 28.72 123.548 28.72C122.396 28.72 121.628 29.344 121.628 30.712V35.968C121.628 37.336 122.252 38.248 123.596 38.248ZM133.276 36.088C133.276 37.72 133.996 38.416 135.58 38.416C137.068 38.416 138.004 37.72 138.004 36.088V35.68H140.116V36.496C140.116 38.872 138.412 40.24 135.58 40.24C132.772 40.24 131.164 38.872 131.164 36.496V30.544C131.164 28.168 132.772 26.8 135.58 26.8C138.412 26.8 140.116 28.168 140.116 30.544V34.384H133.276V36.088ZM133.276 30.952V32.68H138.004V30.952C138.004 29.32 137.068 28.624 135.58 28.624C133.996 28.624 133.276 29.32 133.276 30.952ZM150.209 32.176H148.241V29.728C148.241 28.96 147.809 28.672 147.233 28.672C146.393 28.672 145.625 29.248 144.953 29.824V40H142.841V26.944H144.545L144.761 28.144C145.625 27.424 146.609 26.8 147.977 26.8C149.465 26.8 150.209 27.808 150.209 29.368V32.176Z" fill="#181818"/>
<path d="M191.194 14.589C187.978 13.3671 184.204 14.0448 181.613 16.6358C178.91 19.3388 178.282 23.3319 179.729 26.6341L165.963 40.3998C164.679 41.6842 164.679 43.7523 165.963 45.0367C167.248 46.3212 169.316 46.3212 170.6 45.0367L184.366 31.271C187.668 32.718 191.661 32.0903 194.364 29.3872C196.955 26.7963 197.633 23.0223 196.411 19.8055L191.756 24.4605C190.311 25.9055 187.984 25.9055 186.539 24.4605C185.095 23.0155 185.095 20.689 186.539 19.244L191.194 14.589ZM169.441 41.5591C170.081 42.1993 170.081 43.2373 169.441 43.8775C168.801 44.5177 167.763 44.5177 167.123 43.8775C166.482 43.2373 166.482 42.1993 167.123 41.5591C167.763 40.9188 168.801 40.9188 169.441 41.5591Z" fill="black"/>
</svg>
