<svg width="213" height="61" viewBox="0 0 213 61" fill="none" xmlns="http://www.w3.org/2000/svg">
<rect width="213" height="61" rx="5" fill="#ED733D"/>
<path d="M73.28 32.744V33.944C73.28 36.968 71.648 38.24 68.672 38.24H67.448C64.64 38.24 63.128 37.256 63.128 34.736V32.696H65.264V34.208C65.264 35.984 65.984 36.416 67.52 36.416H68.576C70.112 36.416 71.12 36.152 71.12 34.04V32.696C71.12 31.472 70.616 30.656 68.936 30.296L66.68 29.816C64.472 29.36 63.392 28.448 63.392 25.592V24.512C63.392 21.872 64.928 20.48 67.736 20.48H68.264C71.048 20.48 72.752 21.752 72.752 23.984V25.856H70.64V24.416C70.64 22.904 69.728 22.304 68.288 22.304H67.808C66.272 22.304 65.552 22.88 65.552 24.656V25.472C65.552 27.128 65.888 27.512 67.424 27.872L69.536 28.328C72.392 28.976 73.28 30.176 73.28 32.744ZM77.7601 34.136C77.7601 35.648 78.6241 36.32 80.1601 36.32C81.5281 36.32 82.4881 35.648 82.4881 34.136V32.912H84.5041V34.64C84.5041 36.92 82.9201 38.24 80.1601 38.24C77.2561 38.24 75.6481 36.92 75.6481 34.64V28.4C75.6481 26.12 77.2561 24.8 80.1601 24.8C82.9201 24.8 84.5041 26.12 84.5041 28.4V30.272H82.4881V28.904C82.4881 27.392 81.6241 26.72 80.1601 26.72C78.5521 26.72 77.7601 27.392 77.7601 28.904V34.136ZM89.1039 34.088C89.1039 35.72 89.8239 36.416 91.4079 36.416C92.8959 36.416 93.8319 35.72 93.8319 34.088V33.68H95.9439V34.496C95.9439 36.872 94.2399 38.24 91.4079 38.24C88.5999 38.24 86.9919 36.872 86.9919 34.496V28.544C86.9919 26.168 88.5999 24.8 91.4079 24.8C94.2399 24.8 95.9439 26.168 95.9439 28.544V32.384H89.1039V34.088ZM89.1039 28.952V30.68H93.8319V28.952C93.8319 27.32 92.8959 26.624 91.4079 26.624C89.8239 26.624 89.1039 27.32 89.1039 28.952ZM100.373 24.944L100.589 25.904C101.645 25.328 102.893 24.8 104.213 24.8C106.253 24.8 107.213 26.048 107.213 28.088V38H105.101V28.664C105.101 27.32 104.501 26.744 103.493 26.744C102.605 26.744 101.573 27.224 100.781 27.656V38H98.6688V24.944H100.373ZM112.143 34.088C112.143 35.72 112.863 36.416 114.447 36.416C115.935 36.416 116.871 35.72 116.871 34.088V33.68H118.983V34.496C118.983 36.872 117.279 38.24 114.447 38.24C111.639 38.24 110.031 36.872 110.031 34.496V28.544C110.031 26.168 111.639 24.8 114.447 24.8C117.279 24.8 118.983 26.168 118.983 28.544V32.384H112.143V34.088ZM112.143 28.952V30.68H116.871V28.952C116.871 27.32 115.935 26.624 114.447 26.624C112.863 26.624 112.143 27.32 112.143 28.952ZM129.892 33.68V34.736C129.892 37.4 128.236 38.24 125.452 38.24C122.812 38.24 121.18 37.376 121.18 35.12V33.68H123.196V34.856C123.196 36.128 124.108 36.416 125.404 36.416C126.892 36.416 127.828 36.152 127.828 34.76V33.824C127.828 33.08 127.444 32.6 126.268 32.408L124.372 32.072C122.116 31.712 121.42 31.016 121.42 28.568V27.872C121.42 25.88 122.812 24.8 125.548 24.8C128.188 24.8 129.652 25.856 129.652 27.776V29.096H127.66V27.944C127.66 27.032 127.06 26.528 125.62 26.528C124.084 26.528 123.412 26.936 123.412 27.944V28.568C123.412 29.84 123.868 30.032 125.164 30.272L126.892 30.584C129.076 30.944 129.892 31.712 129.892 33.68Z" fill="white"/>
<path d="M34.8892 12.8232L34.7124 12.6464L34.5356 12.8232L17.8232 29.5356L17.6464 29.7124L17.8232 29.8892L34.5356 46.6016L34.7124 46.7783L34.8892 46.6016L51.6016 29.8892L51.7783 29.7124L51.6016 29.5356L34.8892 12.8232ZM34.7124 15.6589L48.7659 29.7124L34.7124 43.7659L20.6589 29.7124L34.7124 15.6589Z" fill="white" stroke="white" stroke-width="0.5"/>
<path fill-rule="evenodd" clip-rule="evenodd" d="M169.12 23.0574C169.571 22.6059 170.304 22.6059 170.755 23.0574L181.5 33.8023L192.245 23.0574C192.696 22.6059 193.429 22.6059 193.88 23.0574C194.332 23.509 194.332 24.241 193.88 24.6926L182.318 36.2551C181.866 36.7066 181.134 36.7066 180.682 36.2551L169.12 24.6926C168.668 24.241 168.668 23.509 169.12 23.0574Z" fill="white"/>
</svg>
