<?xml version="1.0" encoding="UTF-8" standalone="no"?>
<!-- Created with Inkscape (http://www.inkscape.org/) -->

<svg
   width="210mm"
   height="297mm"
   viewBox="0 0 210 297"
   version="1.1"
   id="svg5"
   xml:space="preserve"
   inkscape:version="1.2.2 (732a01da63, 2022-12-09)"
   sodipodi:docname="ScriptButton.svg"
   xmlns:inkscape="http://www.inkscape.org/namespaces/inkscape"
   xmlns:sodipodi="http://sodipodi.sourceforge.net/DTD/sodipodi-0.dtd"
   xmlns="http://www.w3.org/2000/svg"
   xmlns:svg="http://www.w3.org/2000/svg"><sodipodi:namedview
     id="namedview7"
     pagecolor="#ffffff"
     bordercolor="#000000"
     borderopacity="0.25"
     inkscape:showpageshadow="2"
     inkscape:pageopacity="0.0"
     inkscape:pagecheckerboard="0"
     inkscape:deskcolor="#d1d1d1"
     inkscape:document-units="mm"
     showgrid="false"
     showguides="true"
     inkscape:zoom="1.2938725"
     inkscape:cx="-137.18508"
     inkscape:cy="-54.101158"
     inkscape:window-width="3840"
     inkscape:window-height="2066"
     inkscape:window-x="-11"
     inkscape:window-y="-11"
     inkscape:window-maximized="1"
     inkscape:current-layer="layer1" /><defs
     id="defs2" /><g
     inkscape:label="Layer 1"
     inkscape:groupmode="layer"
     id="layer1"><path
       style="fill:#ffffff;stroke-width:0.264583;fill-opacity:1"
       d="M 86.942065,136.99305 C 85.034361,134.765 81.313168,131.2867 78.078523,128.70806 69.6213,121.96601 58.405329,116.78533 47.701218,114.67673 c -2.459894,-0.48457 -8.854276,-1.3256 -10.078619,-1.3256 -0.49612,0 -0.503338,-0.35328 -0.33382,-16.338018 0.0953,-8.985912 0.173927,-27.208387 0.174734,-40.494389 l 0.0015,-24.156366 1.653646,0.163818 c 5.454759,0.540375 12.22129,2.155671 17.925521,4.279156 11.634552,4.331142 23.138304,13.164954 30.646648,23.533804 l 1.367903,1.889042 v 38.393773 c 0,21.11657 -0.0893,38.39059 -0.198437,38.38672 -0.109141,-0.004 -0.972344,-0.9109 -1.918229,-2.01562 z M 95.144148,100.5242 V 61.965962 l 2.311178,-3.08085 c 2.499222,-3.331523 7.995474,-9.028759 11.182574,-11.591505 10.39594,-8.359365 22.47334,-13.256074 36.44635,-14.776943 l 1.65365,-0.179988 v 40.507228 c 0,38.455766 -0.0235,40.507226 -0.46464,40.507226 -0.97107,0 -7.16083,0.80011 -9.06036,1.17118 -5.70356,1.11416 -10.66181,2.66461 -15.84789,4.95564 -8.61453,3.80561 -16.07588,9.04944 -22.736228,15.979 l -3.484634,3.62548 z M 76.22644,137.10885 c -3.679841,-1.31995 -9.952374,-2.91826 -14.18949,-3.61565 -5.634607,-0.9274 -9.59107,-1.17031 -16.576189,-1.01769 -6.937915,0.15159 -11.134466,0.63234 -16.859321,1.93139 -1.600729,0.36323 -3.237839,0.73025 -3.638021,0.8156 l -0.727604,0.15519 0.0011,-41.506505 0.0011,-41.50651 3.096525,-0.926042 c 1.703088,-0.509323 3.250382,-0.964538 3.43843,-1.011586 0.278315,-0.06959 0.342095,6.11479 0.342095,33.152201 0,36.130812 -0.08084,34.165052 1.446102,35.165542 0.511794,0.33534 1.711039,0.50734 4.861279,0.69721 15.011736,0.90476 27.829979,6.15077 39.270289,16.07178 2.550404,2.21171 3.076885,2.74123 2.658259,2.67361 -0.117729,-0.019 -1.523741,-0.50436 -3.12447,-1.07854 z m 30.29479,-0.77784 c 4.14413,-3.89667 10.66193,-8.31429 15.875,-10.75972 8.36229,-3.92271 16.06364,-5.72577 26.52163,-6.20931 1.92318,-0.0889 2.9586,-0.61173 3.57083,-1.80302 0.2542,-0.49463 0.32769,-8.0067 0.33073,-33.80446 l 0.004,-33.168508 0.99218,0.185071 c 0.54571,0.101791 2.09352,0.53735 3.43959,0.967912 l 2.44739,0.782836 v 41.425714 41.425715 l -0.59531,-0.13432 c -3.20521,-0.72318 -10.41478,-2.06337 -12.63385,-2.34852 -4.19914,-0.53957 -16.70784,-0.46195 -20.7698,0.1289 -7.03643,1.0235 -12.05471,2.19747 -17.6581,4.13093 -1.70831,0.58945 -3.19659,1.06609 -3.30729,1.0592 -0.1107,-0.007 0.6917,-0.85218 1.7831,-1.87842 z"
       id="path1052" /></g></svg>
