<svg width="32" height="32" viewBox="0 0 32 32" fill="none" xmlns="http://www.w3.org/2000/svg">
<rect y="31.2837" width="31.1963" height="31.1963" rx="3" transform="rotate(-90 0 31.2837)" fill="#FAF4F0"/>
<path d="M7.98045 30.7837C7.44945 30.7837 6.93091 30.7932 6.43407 30.8024L6.36294 30.8037C5.84259 30.8132 5.34766 30.8218 4.8776 30.8185C3.93129 30.8119 3.12419 30.7568 2.46625 30.5813C1.81789 30.4084 1.3488 30.128 1.0321 29.6907C0.71103 29.2474 0.5 28.5786 0.5 27.5396L0.5 3.53957C0.5 2.49873 0.711724 1.85493 1.02492 1.4437C1.33303 1.03915 1.79265 0.789951 2.44304 0.649391C3.10301 0.506763 3.91167 0.486252 4.86327 0.506876C5.19934 0.51416 5.55622 0.526745 5.92729 0.539829C6.57984 0.562838 7.27625 0.587395 7.98045 0.587395L23.2159 0.587395C23.9201 0.587395 24.6165 0.562838 25.269 0.539829C25.6401 0.526745 25.997 0.51416 26.333 0.506876C27.2846 0.486252 28.0933 0.506763 28.7533 0.649391C29.4037 0.789951 29.8633 1.03915 30.1714 1.4437C30.4846 1.85493 30.6963 2.49873 30.6963 3.53957L30.6963 27.5396C30.6963 28.5786 30.4853 29.2474 30.1642 29.6907C29.8475 30.128 29.3784 30.4084 28.7301 30.5813C28.0721 30.7568 27.265 30.8119 26.3187 30.8185C25.8486 30.8218 25.3537 30.8132 24.8334 30.8037L24.7623 30.8024C24.2654 30.7932 23.7469 30.7837 23.2159 30.7837L7.98045 30.7837Z" stroke="url(#paint0_radial_4_1264)"/>
<g filter="url(#filter0_di_4_1264)">
<rect x="3.6272" y="27.6558" width="23.9414" height="23.9414" rx="3" transform="rotate(-90 3.6272 27.6558)" fill="url(#paint1_linear_4_1264)"/>
</g>
<rect x="5.07812" y="26.2053" width="21.0394" height="21.0394" rx="3" transform="rotate(-90 5.07812 26.2053)" fill="#ED733D"/>
<rect x="5.07812" y="26.2053" width="21.0394" height="21.0394" rx="3" transform="rotate(-90 5.07812 26.2053)" fill="url(#paint2_linear_4_1264)" fill-opacity="0.1"/>
<rect x="5.07812" y="26.2053" width="21.0394" height="21.0394" rx="3" transform="rotate(-90 5.07812 26.2053)" fill="url(#paint3_linear_4_1264)"/>
<rect x="5.57812" y="25.7053" width="20.0394" height="20.0394" rx="2.5" transform="rotate(-90 5.57812 25.7053)" stroke="url(#paint4_linear_4_1264)" stroke-opacity="0.3"/>
<defs>
<filter id="filter0_di_4_1264" x="1.6272" y="1.71436" width="26.9414" height="26.9414" filterUnits="userSpaceOnUse" color-interpolation-filters="sRGB">
<feFlood flood-opacity="0" result="BackgroundImageFix"/>
<feColorMatrix in="SourceAlpha" type="matrix" values="0 0 0 0 0 0 0 0 0 0 0 0 0 0 0 0 0 0 127 0" result="hardAlpha"/>
<feOffset dx="-1" dy="-1"/>
<feGaussianBlur stdDeviation="0.5"/>
<feColorMatrix type="matrix" values="0 0 0 0 1 0 0 0 0 1 0 0 0 0 1 0 0 0 1 0"/>
<feBlend mode="normal" in2="BackgroundImageFix" result="effect1_dropShadow_4_1264"/>
<feBlend mode="normal" in="SourceGraphic" in2="effect1_dropShadow_4_1264" result="shape"/>
<feColorMatrix in="SourceAlpha" type="matrix" values="0 0 0 0 0 0 0 0 0 0 0 0 0 0 0 0 0 0 127 0" result="hardAlpha"/>
<feOffset dx="1" dy="1"/>
<feGaussianBlur stdDeviation="0.5"/>
<feComposite in2="hardAlpha" operator="arithmetic" k2="-1" k3="1"/>
<feColorMatrix type="matrix" values="0 0 0 0 0 0 0 0 0 0 0 0 0 0 0 0 0 0 0.1 0"/>
<feBlend mode="normal" in2="shape" result="effect2_innerShadow_4_1264"/>
</filter>
<radialGradient id="paint0_radial_4_1264" cx="0" cy="0" r="1" gradientUnits="userSpaceOnUse" gradientTransform="translate(34.8238 4.44035) rotate(162.719) scale(34.1908 34.1908)">
<stop stop-color="#B3ACA7"/>
<stop offset="1" stop-color="#FFFDFB"/>
</radialGradient>
<linearGradient id="paint1_linear_4_1264" x1="9.41946" y1="23.022" x2="22.1624" y2="57.3894" gradientUnits="userSpaceOnUse">
<stop stop-color="#B0A6A5"/>
<stop offset="1" stop-color="#FFFBF8"/>
</linearGradient>
<linearGradient id="paint2_linear_4_1264" x1="21.039" y1="51.5977" x2="20.6763" y2="33.4603" gradientUnits="userSpaceOnUse">
<stop/>
<stop offset="1" stop-opacity="0"/>
</linearGradient>
<linearGradient id="paint3_linear_4_1264" x1="16.3233" y1="9.88167" x2="16.3233" y2="35.9995" gradientUnits="userSpaceOnUse">
<stop stop-color="white"/>
<stop offset="1" stop-color="white" stop-opacity="0"/>
</linearGradient>
<linearGradient id="paint4_linear_4_1264" x1="22.49" y1="46.1565" x2="15.2351" y2="24.7543" gradientUnits="userSpaceOnUse">
<stop stop-color="#0C0C0C"/>
<stop offset="1" stop-opacity="0"/>
</linearGradient>
</defs>
</svg>
