<?xml version="1.0" encoding="UTF-8" standalone="no"?>
<!-- Created with Inkscape (http://www.inkscape.org/) -->

<svg
   width="210mm"
   height="297mm"
   viewBox="0 0 210 297"
   version="1.1"
   id="svg5"
   xml:space="preserve"
   inkscape:version="1.2.2 (732a01da63, 2022-12-09)"
   sodipodi:docname="StartSimButton.svg"
   xmlns:inkscape="http://www.inkscape.org/namespaces/inkscape"
   xmlns:sodipodi="http://sodipodi.sourceforge.net/DTD/sodipodi-0.dtd"
   xmlns="http://www.w3.org/2000/svg"
   xmlns:svg="http://www.w3.org/2000/svg"><sodipodi:namedview
     id="namedview7"
     pagecolor="#ffffff"
     bordercolor="#000000"
     borderopacity="0.25"
     inkscape:showpageshadow="2"
     inkscape:pageopacity="0.0"
     inkscape:pagecheckerboard="0"
     inkscape:deskcolor="#d1d1d1"
     inkscape:document-units="mm"
     showgrid="false"
     showguides="false"
     inkscape:zoom="5.1754899"
     inkscape:cx="233.8909"
     inkscape:cy="108.0091"
     inkscape:window-width="3840"
     inkscape:window-height="2066"
     inkscape:window-x="-11"
     inkscape:window-y="-11"
     inkscape:window-maximized="1"
     inkscape:current-layer="layer1" /><defs
     id="defs2" /><g
     inkscape:label="Layer 1"
     inkscape:groupmode="layer"
     id="layer1"><g
       id="g933"
       transform="translate(0,-17.346664)"><rect
         style="fill:#e3e3e2;fill-opacity:1;stroke-width:0.187865"
         id="rect2603-9"
         width="56.356251"
         height="16.139999"
         x="0"
         y="17.346664"
         rx="0.67399573" /><g
         id="g879"><path
           style="fill:#000000;stroke-width:0.0360591"
           d="m 4.9925876,27.819589 c -0.404938,-0.128064 -0.538394,-0.290419 -0.597061,-0.726347 -0.02126,-0.157965 -0.03354,-0.368286 -0.0273,-0.467379 l 0.01135,-0.18017 0.237891,-0.01054 0.237891,-0.01054 0.02341,0.32991 c 0.02614,0.368195 0.06674,0.479201 0.215612,0.589398 0.09116,0.06748 0.151506,0.07536 0.576946,0.07536 0.687921,0 0.796269,-0.07814 0.840931,-0.606503 0.03616,-0.427755 -0.0068,-0.655248 -0.154812,-0.819034 -0.14406,-0.159458 -0.185235,-0.175362 -0.833167,-0.321804 -0.524657,-0.118583 -0.654337,-0.171242 -0.828384,-0.336387 -0.175336,-0.166367 -0.239752,-0.40342 -0.242161,-0.891152 -0.0025,-0.504365 0.049,-0.702669 0.238294,-0.917717 0.207618,-0.235865 0.429681,-0.308294 0.945231,-0.308294 0.623993,0 0.93374,0.12592 1.128951,0.458947 0.09011,0.15373 0.102292,0.213444 0.114161,0.559724 l 0.01329,0.387635 h -0.256403 -0.256402 v -0.30117 c 0,-0.341823 -0.06637,-0.486172 -0.281248,-0.611665 -0.169299,-0.09887 -0.709862,-0.09929 -0.878717,-6.92e-4 -0.212347,0.124018 -0.264371,0.265065 -0.264371,0.71677 0,0.599615 0.0237,0.622747 0.82936,0.809488 0.599572,0.138975 0.838575,0.242873 1.004437,0.436644 0.176679,0.206411 0.221573,0.402929 0.221573,0.969922 0,0.462561 -0.0052,0.497252 -0.103099,0.696763 -0.119108,0.242568 -0.30309,0.394337 -0.576441,0.475513 -0.228613,0.06789 -1.12852,0.0701 -1.339771,0.0033 z m 3.455415,0.01467 c -0.229863,-0.04833 -0.362966,-0.131876 -0.471677,-0.29607 l -0.09901,-0.14954 -0.01072,-1.29182 -0.01072,-1.291821 h -0.196626 -0.196627 v -0.196441 -0.196441 l 0.18931,-0.0109 0.189311,-0.0109 0.01028,-0.369606 0.01028,-0.369606 h 0.233122 0.233123 v 0.378621 0.378621 h 0.360591 0.360591 v 0.198325 0.198325 h -0.360591 -0.360591 l 1.51e-4,1.162908 c 1.5e-4,1.098673 0.0041,1.16943 0.07214,1.280999 0.09585,0.157205 0.218117,0.198412 0.531721,0.1792 l 0.261428,-0.01602 v 0.189052 c 0,0.128633 -0.01611,0.195231 -0.0504,0.208392 -0.102775,0.03944 -0.549495,0.05533 -0.695071,0.02472 z m 1.6830094,0.0039 c -0.4205494,-0.08945 -0.6132314,-0.379086 -0.6128034,-0.921173 3.54e-4,-0.456227 0.116712,-0.694901 0.4132633,-0.847723 0.1642671,-0.08465 0.2269051,-0.09377 0.7572411,-0.110315 l 0.578162,-0.01803 0.0114,-0.270444 c 0.01802,-0.427296 -0.01946,-0.636761 -0.137588,-0.768971 -0.100649,-0.112646 -0.107513,-0.114478 -0.428956,-0.114478 -0.308919,0 -0.332104,0.0055 -0.426653,0.09996 -0.0818,0.08178 -0.103261,0.140798 -0.118012,0.324532 l -0.01803,0.224568 -0.2253701,0.01074 -0.2253693,0.01074 2.18e-4,-0.20906 c 2.86e-4,-0.290681 0.05575,-0.461405 0.2028163,-0.624187 0.1836621,-0.20329 0.3888361,-0.27021 0.8246681,-0.268975 0.420536,0.0012 0.58605,0.04868 0.779778,0.223695 0.237299,0.214383 0.247907,0.294549 0.247907,1.873258 v 1.381731 h -0.199227 c -0.19331,0 -0.19988,-0.0033 -0.221257,-0.110153 -0.0169,-0.08449 -0.03559,-0.104118 -0.08023,-0.08424 -0.373639,0.166366 -0.864648,0.25325 -1.121946,0.198529 z m 0.924818,-0.479654 0.211045,-0.08368 0.01006,-0.47764 0.01006,-0.477641 h -0.433026 c -0.701813,0 -0.8316,0.09128 -0.830605,0.584172 6.34e-4,0.311855 0.0469,0.420726 0.216325,0.509033 0.164419,0.08569 0.523405,0.06184 0.816138,-0.05423 z m 4.618101,0.474115 c -0.314889,-0.07853 -0.497845,-0.25382 -0.563833,-0.540206 -0.02137,-0.09275 -0.03759,-0.656794 -0.0381,-1.324451 l -8.65e-4,-1.162908 h -0.18029 -0.180296 v -0.198357 -0.198325 h 0.180296 0.180295 v -0.378621 -0.37862 h 0.233123 0.233123 l 0.01028,0.369605 0.01028,0.369606 0.369606,0.01028 0.369606,0.01028 v 0.197063 0.197064 h -0.37862 -0.378621 l 0.0016,1.05473 c 8.64e-4,0.580102 0.01557,1.12729 0.03268,1.215974 0.02165,0.112223 0.06667,0.193015 0.148071,0.265749 0.112375,0.100406 0.128062,0.103862 0.40003,0.08812 l 0.283071,-0.01638 v 0.188503 c 0,0.128165 -0.01614,0.194696 -0.05039,0.207844 -0.105627,0.04054 -0.550461,0.05558 -0.680967,0.02303 z m 2.975032,-0.01553 c -0.211424,-0.06603 -0.390242,-0.210541 -0.483566,-0.390817 -0.06338,-0.122439 -0.08129,-0.23167 -0.09426,-0.574857 l -0.01601,-0.423695 h 0.256859 0.256858 v 0.287744 c 0,0.354903 0.07186,0.555665 0.229839,0.642165 0.09027,0.04942 0.207358,0.06172 0.587895,0.06172 0.423809,0 0.486173,-0.008 0.576946,-0.07468 0.194262,-0.14255 0.232079,-0.273139 0.220432,-0.761194 -0.009,-0.37943 -0.02076,-0.453064 -0.08599,-0.540887 -0.117554,-0.158273 -0.316351,-0.249762 -0.731747,-0.336766 -1.040492,-0.217928 -1.187946,-0.357603 -1.221838,-1.157375 -0.02882,-0.680124 0.09439,-1.000262 0.46314,-1.203426 0.183234,-0.10095 0.224958,-0.108649 0.654681,-0.120794 0.540542,-0.01527 0.770232,0.03909 1.00152,0.237067 0.226571,0.193938 0.289306,0.351302 0.314018,0.787692 l 0.02128,0.375779 h -0.257847 -0.257847 v -0.262819 c 0,-0.200825 -0.01913,-0.300747 -0.08113,-0.423694 -0.113547,-0.225171 -0.26751,-0.294312 -0.655377,-0.294312 -0.585397,0 -0.723243,0.164999 -0.700204,0.838125 0.01882,0.549724 0.05359,0.58134 0.832556,0.756928 0.574482,0.129496 0.892328,0.273724 1.033889,0.469144 0.159591,0.220308 0.191775,0.397975 0.176915,0.976667 -0.01143,0.445138 -0.02425,0.53885 -0.09101,0.664871 -0.112387,0.212172 -0.336092,0.39894 -0.556092,0.464273 -0.242893,0.07213 -1.166296,0.0742 -1.393912,0.0031 z m 9.120199,0.01652 c -0.170951,-0.07272 -0.28719,-0.182691 -0.370607,-0.350607 -0.08489,-0.170873 -0.08544,-0.180018 -0.09661,-1.623222 L 27.290705,24.4084 h 0.233902 0.233903 l 0.0117,1.343204 c 0.01118,1.278761 0.01527,1.349255 0.08581,1.469329 0.04076,0.06937 0.113773,0.147256 0.162269,0.17308 0.141326,0.07525 0.484839,0.03304 0.764281,-0.09394 l 0.243403,-0.110626 v -1.390538 -1.39054 h 0.234381 0.234387 v 1.714695 1.714694 l -0.187182,-0.0109 c -0.176184,-0.01026 -0.1889,-0.01756 -0.216356,-0.124119 l -0.02917,-0.113219 -0.29749,0.129144 c -0.250164,0.1086 -0.34624,0.130884 -0.603985,0.14009 -0.16858,0.0061 -0.344718,-0.0053 -0.391415,-0.02518 z m 4.454098,-0.01317 c -0.0958,-0.02689 -0.21754,-0.08032 -0.270438,-0.118699 -0.230433,-0.167211 -0.349382,-0.674095 -0.259613,-1.106288 0.03222,-0.155054 0.07873,-0.249585 0.175729,-0.357089 0.206592,-0.228953 0.305772,-0.25772 0.961292,-0.278853 l 0.57695,-0.0186 v -0.436476 c 0,-0.492101 -0.0318,-0.591384 -0.21801,-0.679724 -0.15382,-0.07299 -0.52828,-0.07256 -0.67008,7.49e-4 -0.13187,0.0682 -0.21172,0.24364 -0.21172,0.465214 v 0.163424 h -0.23958 -0.239595 l 0.02058,-0.272146 c 0.03631,-0.480221 0.246345,-0.725354 0.693805,-0.809783 0.54921,-0.103629 1.04943,0.04001 1.23425,0.354407 l 0.0991,0.168606 0.0105,1.469409 0.0106,1.469411 h -0.19698 c -0.19056,0 -0.19777,-0.0037 -0.2213,-0.110722 -0.0188,-0.08588 -0.0377,-0.10478 -0.084,-0.08423 -0.42945,0.190564 -0.88657,0.261339 -1.17147,0.181383 z m 0.9752,-0.462864 0.20872,-0.08277 0.01,-0.47764 0.01,-0.477641 -0.40672,2.18e-4 c -0.66836,3.27e-4 -0.82274,0.08526 -0.85041,0.467828 -0.008,0.118044 -0.005,0.270156 0.008,0.338027 0.0259,0.13825 0.16678,0.298484 0.2856,0.324926 0.15747,0.03504 0.5316,-0.01227 0.73506,-0.09294 z m 2.19801,0.462864 c -0.22713,-0.06375 -0.34615,-0.154997 -0.45678,-0.350217 l -0.0901,-0.159072 -0.0111,-1.253056 -0.0111,-1.253055 H 34.64922 34.47106 V 24.606715 24.40839 h 0.1803 0.18029 v -0.378631 -0.37862 h 0.23312 0.23312 l 0.0103,0.369605 0.0103,0.369607 0.36961,0.01028 0.36961,0.01028 v 0.197063 0.197064 h -0.37863 -0.37862 l 0.002,1.036701 c 0.002,1.235871 0.0167,1.353649 0.17932,1.498989 0.11589,0.10355 0.12583,0.105619 0.41936,0.08731 l 0.30065,-0.01876 v 0.190402 c 0,0.218034 10e-4,0.217242 -0.39665,0.25021 -0.14623,0.01212 -0.29992,9.92e-4 -0.40864,-0.02949 z m 3.19718,-0.01712 c -0.24542,-0.08481 -0.42679,-0.227214 -0.52616,-0.413124 -0.0772,-0.14445 -0.0813,-0.195992 -0.0927,-1.160819 -0.008,-0.682481 0.002,-1.072188 0.0304,-1.202633 0.0482,-0.219724 0.22095,-0.438457 0.43064,-0.545433 0.19634,-0.100164 0.55131,-0.1579 0.82384,-0.133996 0.46923,0.04116 0.75959,0.206537 0.91435,0.520787 0.0826,0.167682 0.0844,0.193558 0.0844,1.217039 0,0.921205 -0.008,1.065771 -0.065,1.214151 -0.0873,0.226126 -0.32637,0.442173 -0.56916,0.514274 -0.26286,0.07806 -0.79024,0.07281 -1.0306,-0.01024 z m 0.95016,-0.458829 c 0.21432,-0.15721 0.22769,-0.230096 0.22774,-1.241883 0,-1.023582 -0.0155,-1.101553 -0.24593,-1.236914 -0.24579,-0.144347 -0.69159,-0.110925 -0.90396,0.06777 -0.16493,0.138782 -0.19233,0.337886 -0.17833,1.295912 0.0139,0.951595 0.0308,1.017033 0.29397,1.139763 0.20893,0.09742 0.65883,0.08368 0.80651,-0.02465 z M 12.583033,26.101247 v -1.732724 l 0.188972,0.0109 c 0.156897,0.009 0.190799,0.02314 0.19973,0.08301 0.006,0.03967 0.01867,0.109123 0.02834,0.154352 l 0.01758,0.08223 0.116228,-0.08713 c 0.343361,-0.257395 0.710004,-0.335044 0.975391,-0.206573 0.244203,0.118217 0.290234,0.241882 0.306484,0.823375 l 0.01335,0.477784 h -0.237923 -0.237922 v -0.373758 c 0,-0.32352 -0.01004,-0.386528 -0.07474,-0.468768 -0.125106,-0.159048 -0.428166,-0.100531 -0.709551,0.137003 l -0.117192,0.09893 v 1.367043 1.367041 h -0.234384 -0.234384 z m 8.86005,1.710209 c -0.01406,-0.01406 -0.02556,-0.785511 -0.02556,-1.714335 v -1.68877 h 0.252767 0.252766 l -0.0093,1.703794 -0.0093,1.703796 -0.217834,0.01054 c -0.119809,0.0058 -0.229339,-9.8e-4 -0.243399,-0.01503 z m 1.308623,-1.708325 v -1.730839 h 0.194313 c 0.193669,0 0.19439,4.23e-4 0.218084,0.126713 l 0.02377,0.126714 0.151522,-0.08878 c 0.174467,-0.102224 0.523036,-0.200799 0.708999,-0.200506 0.209401,3.27e-4 0.394824,0.06915 0.540234,0.200524 0.07537,0.0681 0.146166,0.123807 0.157318,0.123807 0.01116,0 0.09844,-0.04824 0.193955,-0.1072 0.530284,-0.327313 1.174103,-0.26218 1.412236,0.142871 l 0.09563,0.162655 0.01055,1.487439 0.01049,1.487441 h -0.235886 -0.235892 l -5.76e-4,-1.343204 c -5.77e-4,-1.229266 -0.0065,-1.35567 -0.06754,-1.490187 -0.121243,-0.266952 -0.463294,-0.305793 -0.86061,-0.09772 l -0.206912,0.108355 -0.0094,1.411381 -0.0094,1.411381 h -0.233967 -0.233966 v -1.335347 c 0,-1.449497 -0.0061,-1.49989 -0.198818,-1.651508 -0.167949,-0.13211 -0.588002,-0.08223 -0.844285,0.100263 l -0.110787,0.07889 v 1.403851 1.403851 h -0.234384 -0.234385 z m 7.987094,1.689601 c -0.157196,-0.08835 -0.274646,-0.234752 -0.325379,-0.405575 -0.0441,-0.14857 -0.05326,-0.517892 -0.05326,-2.15599 v -1.976708 h 0.234387 0.234382 l 2.71e-4,1.88409 c 1.09e-4,1.144864 0.01435,1.935025 0.03626,2.013907 0.05361,0.193039 0.154705,0.266834 0.365504,0.266834 h 0.17804 l -0.01055,0.198326 -0.01055,0.198325 -0.288469,0.0086 c -0.163681,0.0049 -0.319673,-0.0088 -0.360593,-0.03188 z m 5.96779,-1.671572 v -1.712809 h 0.23438 0.23439 v 1.712809 1.712811 h -0.23439 -0.23438 z m 4.32709,-0.01803 v -1.730839 h 0.19431 c 0.19352,0 0.19441,5.18e-4 0.21799,0.126207 0.013,0.06942 0.0292,0.126207 0.036,0.126207 0.007,0 0.11566,-0.04835 0.24193,-0.107431 0.67206,-0.314502 1.23938,-0.202945 1.42588,0.280392 0.0593,0.153556 0.0654,0.30436 0.0654,1.593937 v 1.424337 h -0.23437 -0.23439 l -0.0181,-1.388276 c -0.0194,-1.49212 -0.0192,-1.490803 -0.2112,-1.593436 -0.17977,-0.09609 -0.61214,-0.02354 -0.89762,0.150631 l -0.11719,0.0715 v 1.388807 1.388808 H 41.26793 41.03355 Z M 21.417519,23.488843 v -0.342562 h 0.252414 0.252413 v 0.342562 0.342562 h -0.252413 -0.252414 z m 15.289071,0 v -0.342562 h 0.25241 0.25241 v 0.342562 0.342562 H 36.959 36.70659 Z"
           id="path783" /><path
           style="fill:#000000;stroke-width:0.0797679"
           d="m 45.655534,25.542913 c 0,-2.631031 0.01869,-4.783693 0.04155,-4.783693 0.04653,0 7.06072,4.604801 7.162514,4.702171 0.03566,0.03411 -0.287402,0.294973 -0.717911,0.5797 -0.43051,0.284725 -2.066012,1.365445 -3.63445,2.401599 l -2.851706,1.883914 z"
           id="path819" /></g></g></g></svg>
