<?xml version="1.0" encoding="UTF-8" standalone="no"?>
<!-- Created with Inkscape (http://www.inkscape.org/) -->

<svg
   width="210mm"
   height="297mm"
   viewBox="0 0 210 297"
   version="1.1"
   id="svg5"
   xml:space="preserve"
   inkscape:version="1.2.2 (732a01da63, 2022-12-09)"
   sodipodi:docname="StopSimButton.svg"
   xmlns:inkscape="http://www.inkscape.org/namespaces/inkscape"
   xmlns:sodipodi="http://sodipodi.sourceforge.net/DTD/sodipodi-0.dtd"
   xmlns="http://www.w3.org/2000/svg"
   xmlns:svg="http://www.w3.org/2000/svg"><sodipodi:namedview
     id="namedview7"
     pagecolor="#ffffff"
     bordercolor="#000000"
     borderopacity="0.25"
     inkscape:showpageshadow="2"
     inkscape:pageopacity="0.0"
     inkscape:pagecheckerboard="0"
     inkscape:deskcolor="#d1d1d1"
     inkscape:document-units="mm"
     showgrid="false"
     showguides="true"
     inkscape:zoom="5.1754899"
     inkscape:cx="233.8909"
     inkscape:cy="108.0091"
     inkscape:window-width="3840"
     inkscape:window-height="2066"
     inkscape:window-x="-11"
     inkscape:window-y="-11"
     inkscape:window-maximized="1"
     inkscape:current-layer="layer1" /><defs
     id="defs2" /><g
     inkscape:label="Layer 1"
     inkscape:groupmode="layer"
     id="layer1"><g
       id="g927"
       transform="translate(0,-43.912231)"><rect
         style="fill:#e3e3e2;fill-opacity:1;stroke-width:0.187865"
         id="rect2603-4"
         width="56.356251"
         height="16.139999"
         x="0"
         y="43.912231"
         rx="0.67399573" /><g
         id="g906"
         transform="translate(0,-1.0583333)"><g
           id="g886"
           transform="matrix(0.32597811,0,0,0.32597811,-10.322916,34.226772)"><path
             style="fill:#000000;stroke-width:0.264583"
             d="M 184.77245,58.561283 V 44.670658 h 2.77812 2.77813 v 13.890625 13.890625 h -2.77813 -2.77812 z"
             id="path874" /><path
             style="fill:#000000;stroke-width:0.264583"
             d="M 173.39537,58.561283 V 44.670658 h 2.77812 2.77813 v 13.890625 13.890625 h -2.77813 -2.77812 z"
             id="path872" /></g><path
           style="fill:#000000;stroke-width:0.0517021"
           d="m 12.759519,54.251872 0.01346,-2.313675 0.18688,-0.01563 c 0.171212,-0.01431 0.189491,-0.0026 0.218026,0.140104 l 0.03115,0.155731 0.298995,-0.138119 c 0.388702,-0.179558 0.891895,-0.214642 1.150325,-0.08021 0.09855,0.05128 0.226523,0.174652 0.284362,0.274179 0.09746,0.167697 0.105164,0.268108 0.105164,1.370109 0,1.345096 -0.02895,1.473916 -0.380347,1.692433 -0.25561,0.158954 -0.80398,0.159172 -1.157793,4.69e-4 l -0.245589,-0.110165 v 0.669221 0.669222 h -0.259043 -0.259042 z m 1.631703,0.657772 c 0.06189,-0.05766 0.130261,-0.168173 0.151931,-0.245585 0.05132,-0.183304 0.05122,-1.856417 -1.03e-4,-2.039866 -0.08983,-0.321004 -0.522425,-0.3696 -1.024642,-0.115106 l -0.254259,0.128832 v 1.078284 1.078285 l 0.245587,0.10831 c 0.327881,0.144605 0.730266,0.14773 0.881486,0.0068 z m -9.5162508,0.496258 c -0.106905,-0.03815 -0.232739,-0.101109 -0.27963,-0.139913 -0.167577,-0.138672 -0.273364,-0.469667 -0.274543,-0.85901 l -0.0011,-0.374842 h 0.252675 0.252677 l 0.0208,0.368149 c 0.01836,0.324949 0.03759,0.382585 0.163824,0.491171 0.127402,0.109586 0.19316,0.123024 0.602093,0.123024 0.252489,0 0.519876,-0.02312 0.594194,-0.05137 0.182243,-0.06929 0.285227,-0.336703 0.285227,-0.740636 0,-0.652429 -0.127546,-0.781322 -0.956491,-0.966594 -0.983476,-0.219811 -1.112134,-0.367708 -1.110748,-1.276844 0.0011,-0.697247 0.0921,-0.901622 0.490321,-1.100732 0.361602,-0.180801 1.068563,-0.184082 1.434376,-0.0066 0.372441,0.180639 0.474956,0.3607 0.496837,0.872671 l 0.01824,0.426543 h -0.231335 -0.231288 l -0.03627,-0.320607 c -0.01995,-0.176333 -0.05855,-0.36222 -0.08576,-0.413082 -0.137887,-0.257645 -0.885605,-0.350297 -1.149805,-0.142477 -0.17461,0.137348 -0.259651,0.45914 -0.224561,0.849728 0.03734,0.415593 0.141408,0.500455 0.795202,0.648414 0.278788,0.06309 0.593838,0.149126 0.700112,0.191188 0.242188,0.09585 0.482558,0.365245 0.553348,0.620159 0.07102,0.255727 0.06941,0.916159 -0.0028,1.176474 -0.07317,0.263552 -0.377927,0.568309 -0.641478,0.641478 -0.284771,0.07905 -1.195923,0.06875 -1.434061,-0.01624 z m 3.555019,0.02588 c -0.270015,-0.06516 -0.393739,-0.160922 -0.494431,-0.382693 -0.08711,-0.19186 -0.098,-0.350584 -0.09901,-1.443491 l -0.0011,-1.227927 h -0.180964 c -0.176649,0 -0.180957,-0.0049 -0.180957,-0.20681 0,-0.201885 0.0043,-0.206809 0.180957,-0.206809 h 0.180958 v -0.387766 -0.387767 h 0.23266 0.23266 v 0.387767 0.387766 h 0.387767 0.387766 v 0.206809 0.20681 h -0.387769 -0.387766 l 3.13e-4,1.07282 c 1.55e-4,0.590052 0.02451,1.160032 0.05411,1.266622 0.07118,0.256309 0.284419,0.372031 0.598689,0.324904 l 0.2258293,-0.03387 v 0.203212 c 0,0.194657 -0.0082,0.204561 -0.1938833,0.235258 -0.231444,0.03826 -0.348801,0.03512 -0.555799,-0.01483 z m 1.8422488,-0.0182 c -0.247037,-0.07895 -0.5024445,-0.339404 -0.5694245,-0.58067 -0.07247,-0.261047 -0.07543,-2.001997 -0.0038,-2.259763 0.123538,-0.444815 0.5040385,-0.661702 1.1573115,-0.659674 0.54479,0.0017 0.917317,0.206859 1.060167,0.583881 0.08523,0.22495 0.07261,2.220132 -0.01538,2.430714 -0.08991,0.215192 -0.343822,0.429296 -0.590286,0.497746 -0.242758,0.06742 -0.81023,0.06074 -1.038545,-0.01224 z m 0.974408,-0.462114 c 0.217536,-0.135853 0.259626,-0.338822 0.259626,-1.251952 0,-1.141274 -0.05358,-1.27133 -0.556946,-1.351822 -0.263827,-0.04219 -0.548135,0.05006 -0.683099,0.221637 -0.09628,0.122397 -0.104213,0.208202 -0.104213,1.126735 0,0.926068 0.0073,1.003547 0.106656,1.12984 0.05866,0.07458 0.180808,0.158238 0.271437,0.185912 0.198594,0.06065 0.562579,0.02955 0.706539,-0.06036 z m 6.34414,0.453418 C 17.178599,55.257891 17.038412,55.008333 17.038412,54.421568 V 54.03214 h 0.258512 0.258508 v 0.30778 c 0,0.363578 0.06826,0.538551 0.240796,0.617159 0.156505,0.07131 0.945665,0.07552 1.128449,0.006 0.206487,-0.0785 0.298745,-0.357406 0.276955,-0.837244 -0.02593,-0.571046 -0.127044,-0.665315 -0.924074,-0.861535 -0.946977,-0.233138 -1.054201,-0.3208 -1.150082,-0.940249 -0.07011,-0.452941 0.0022,-0.952451 0.172615,-1.191716 0.185124,-0.259981 0.512855,-0.380179 1.03447,-0.379397 0.377405,5.67e-4 0.486046,0.0217 0.733125,0.142581 0.373591,0.182779 0.504134,0.423527 0.504134,0.929719 v 0.345591 H 19.313311 19.054799 V 51.8839 c 0,-0.521192 -0.181341,-0.695413 -0.723832,-0.695413 -0.574173,0 -0.697979,0.14433 -0.697979,0.813689 0,0.407777 0.0089,0.443784 0.137159,0.554097 0.07797,0.06707 0.301061,0.156334 0.51702,0.20687 0.869587,0.203488 1.154402,0.346673 1.317691,0.662435 0.12723,0.246036 0.15539,0.982473 0.05127,1.340652 -0.0969,0.333322 -0.329029,0.57274 -0.638686,0.658731 -0.278285,0.07728 -1.189606,0.06445 -1.426648,-0.0201 z m 9.183079,-0.0264 C 26.43808,55.173745 26.424109,55.100408 26.40653,53.450484 l -0.01585,-1.48644 h 0.231819 0.23182 l 0.01669,1.383035 c 0.01828,1.515522 0.02898,1.570143 0.326478,1.666093 0.177886,0.05739 0.437285,0.0097 0.732465,-0.134371 l 0.198587,-0.09699 0.01375,-1.408886 0.01375,-1.408886 h 0.231828 0.231829 v 1.732026 1.732024 h -0.206802 c -0.176139,0 -0.206809,-0.01623 -0.206809,-0.109435 0,-0.120138 0.01305,-0.121643 -0.465319,0.0536 -0.369839,0.135479 -0.750906,0.137935 -0.966907,0.0062 z m 4.572643,0.03033 c -0.39936,-0.148509 -0.5036,-0.335043 -0.5036,-0.901152 0,-0.338237 0.02,-0.438289 0.1165,-0.581422 0.20706,-0.307253 0.40448,-0.38243 1.05972,-0.403548 l 0.58165,-0.01875 v -0.405603 c 0,-0.611227 -0.11866,-0.772387 -0.56872,-0.772387 -0.37932,0 -0.56872,0.172996 -0.56872,0.519455 0,0.147161 -0.009,0.152674 -0.2399,0.152674 h -0.23989 l 0.0304,-0.294246 c 0.0553,-0.535267 0.30923,-0.748264 0.93118,-0.780908 0.52644,-0.02764 0.84909,0.08692 1.01602,0.360731 0.0986,0.161673 0.1046,0.257123 0.10479,1.657989 l 1.9e-4,1.486439 h -0.1858 c -0.14402,0 -0.19205,-0.0239 -0.2136,-0.106329 -0.0194,-0.07431 -0.053,-0.09556 -0.11149,-0.0706 -0.48321,0.206367 -0.92331,0.263767 -1.2087,0.157643 z m 1.06045,-0.463189 0.19382,-0.08099 v -0.501464 -0.501461 l -0.4697,0.03043 c -0.67896,0.04398 -0.86161,0.204083 -0.80659,0.707 0.0381,0.348205 0.22323,0.4878 0.60146,0.453504 0.15795,-0.01431 0.37441,-0.06248 0.48101,-0.107027 z m 2.14509,0.460269 c -0.47762,-0.170434 -0.50361,-0.262421 -0.50361,-1.782601 v -1.239392 l -0.19388,-0.01605 c -0.18335,-0.01519 -0.19475,-0.02658 -0.20993,-0.209935 l -0.016,-0.193884 h 0.20993 0.20993 v -0.387766 -0.387767 h 0.23266 0.23266 v 0.387767 0.387766 h 0.38777 0.38776 v 0.206808 0.206811 h -0.39041 -0.39043 l 0.0156,1.213664 c 0.0152,1.184747 0.0184,1.21647 0.13358,1.331334 0.0981,0.09783 0.17,0.116702 0.42654,0.111951 l 0.30855,-0.0057 v 0.19257 c 0,0.189899 -0.004,0.193028 -0.23988,0.225452 -0.31968,0.04381 -0.37329,0.04015 -0.60077,-0.04103 z m 3.27748,0.0077 c -0.24704,-0.07896 -0.50245,-0.339405 -0.56943,-0.580671 -0.0725,-0.261046 -0.0754,-2.001997 -0.004,-2.259763 0.11989,-0.431684 0.50385,-0.661074 1.10561,-0.66052 0.4032,3.71e-4 0.65748,0.07258 0.86223,0.24487 0.27916,0.234902 0.30479,0.364248 0.30479,1.538568 0,0.781014 -0.0187,1.108017 -0.0705,1.232003 -0.0899,0.215193 -0.34383,0.429297 -0.59029,0.497746 -0.24276,0.06742 -0.81023,0.06074 -1.03855,-0.01224 z m 0.96674,-0.457324 c 0.21446,-0.133936 0.24077,-0.248182 0.2589,-1.124393 0.0201,-0.971908 -0.004,-1.161168 -0.1695,-1.326585 -0.24766,-0.247661 -0.84531,-0.21162 -1.06215,0.06406 -0.0963,0.122396 -0.10421,0.208202 -0.10421,1.126734 0,0.926068 0.007,1.003547 0.10665,1.129841 0.0587,0.07458 0.18081,0.158237 0.27144,0.185912 0.1943,0.05934 0.56165,0.03013 0.69887,-0.05556 z m -18.34551,-1.260199 v -1.732025 h 0.232659 0.232661 v 1.732025 1.732025 h -0.232661 -0.232659 z m 1.344258,-0.02585 v -1.757874 h 0.179973 c 0.149672,0 0.185528,0.02214 0.212979,0.131506 0.01816,0.07233 0.04768,0.123452 0.06561,0.113603 0.360104,-0.197726 0.837149,-0.294458 1.111981,-0.225479 0.07022,0.01762 0.196911,0.09032 0.281553,0.161533 l 0.153892,0.129491 0.272134,-0.141188 c 0.366187,-0.189983 0.877557,-0.222484 1.118786,-0.07111 0.336361,0.211076 0.349765,0.281544 0.367339,1.930948 l 0.01585,1.486438 H 25.339543 25.10397 l -0.0011,-1.253778 c -7.84e-4,-0.68958 -0.0228,-1.346844 -0.04915,-1.460589 -0.09196,-0.396906 -0.385083,-0.484904 -0.867331,-0.260385 l -0.271437,0.126372 v 1.42419 1.42419 h -0.23266 -0.23266 l -0.0029,-1.30548 c -0.0031,-1.410103 -0.03311,-1.611753 -0.258223,-1.737695 -0.164954,-0.09229 -0.526153,-0.04635 -0.761662,0.09687 l -0.16635,0.101163 v 1.422572 1.42257 h -0.232664 -0.232659 z m 8.027776,1.695223 c -0.06344,-0.03061 -0.16231,-0.152712 -0.219735,-0.271336 -0.09929,-0.205122 -0.10441,-0.314854 -0.10441,-2.241595 V 50.8266 h 0.230903 0.230902 l 0.01468,1.985166 c 0.01381,1.868124 0.02049,1.991576 0.113176,2.093939 0.0676,0.07463 0.1609,0.108777 0.29729,0.108777 0.19746,0 0.19879,0.0014 0.19879,0.206809 v 0.206808 l -0.32313,-0.0035 c -0.17773,-0.0019 -0.375042,-0.02855 -0.438469,-0.05916 z m 6.086926,-1.669371 V 51.96405 h 0.25852 0.25851 v 1.732025 1.732024 h -0.25851 -0.25852 z m 4.40693,-0.01293 0.0136,-1.74495 0.19389,-0.01605 c 0.1648,-0.01363 0.19388,-5.29e-4 0.19388,0.08743 0,0.161193 0.0632,0.166186 0.39208,0.03097 0.59327,-0.243895 1.14082,-0.137816 1.31952,0.255633 0.0858,0.188944 0.0958,0.36173 0.0969,1.671319 l 10e-4,1.460588 h -0.23265 -0.23267 v -1.320067 c 0,-1.453188 -0.03,-1.633671 -0.28824,-1.73184 -0.16667,-0.06337 -0.43607,-0.02012 -0.73287,0.117666 l -0.21974,0.102006 v 1.416117 1.416118 h -0.25919 -0.2592 z m -19.86589,-2.649737 v -0.361914 h 0.258511 0.258511 v 0.361914 0.361915 H 20.70927 20.450759 Z m 15.45896,0 v -0.361914 h 0.25852 0.25851 v 0.361914 0.361915 h -0.25851 -0.25852 z"
           id="path755" /></g></g></g></svg>
