<?xml version="1.0" encoding="UTF-8" standalone="no"?>
<!-- Created with Inkscape (http://www.inkscape.org/) -->

<svg
   width="210mm"
   height="297mm"
   viewBox="0 0 210 297"
   version="1.1"
   id="svg5"
   xml:space="preserve"
   inkscape:version="1.2.2 (732a01da63, 2022-12-09)"
   sodipodi:docname="TextbookButton.svg"
   xmlns:inkscape="http://www.inkscape.org/namespaces/inkscape"
   xmlns:sodipodi="http://sodipodi.sourceforge.net/DTD/sodipodi-0.dtd"
   xmlns="http://www.w3.org/2000/svg"
   xmlns:svg="http://www.w3.org/2000/svg"><sodipodi:namedview
     id="namedview7"
     pagecolor="#ffffff"
     bordercolor="#000000"
     borderopacity="0.25"
     inkscape:showpageshadow="2"
     inkscape:pageopacity="0.0"
     inkscape:pagecheckerboard="0"
     inkscape:deskcolor="#d1d1d1"
     inkscape:document-units="mm"
     showgrid="false"
     inkscape:zoom="10.35098"
     inkscape:cx="106.31844"
     inkscape:cy="123.85301"
     inkscape:window-width="3840"
     inkscape:window-height="2066"
     inkscape:window-x="-11"
     inkscape:window-y="-11"
     inkscape:window-maximized="1"
     inkscape:current-layer="layer1" /><defs
     id="defs2" /><g
     inkscape:label="Layer 1"
     inkscape:groupmode="layer"
     id="layer1"><rect
       style="fill:#e3e3e2;fill-opacity:1;stroke-width:0.187865"
       id="rect2603-2"
       width="56.356251"
       height="16.139999"
       x="-0.11194179"
       y="16.162006"
       rx="0.67399573" /><path
       style="fill:#000000;stroke-width:0.0483127"
       d="m 43.318027,28.632991 c -0.460628,-0.15924 -0.919523,-0.583676 -1.089312,-1.007514 -0.114564,-0.285995 -0.130424,-0.519083 -0.06017,-0.8844 0.03857,-0.200592 0.05599,-0.446442 0.03886,-0.548926 -0.02619,-0.156769 -0.0087,-0.21684 0.112643,-0.386503 0.329298,-0.460496 0.66783,-1.326715 0.609433,-1.559388 -0.02037,-0.08114 0.0079,-0.174167 0.0911,-0.299909 0.345238,-0.521689 0.587833,-1.212543 0.539339,-1.535915 -0.02841,-0.189476 -0.01683,-0.218166 0.169938,-0.420781 0.286002,-0.310275 0.531928,-0.924931 0.533092,-1.332386 7.48e-4,-0.263578 0.02059,-0.334593 0.133748,-0.478859 0.07307,-0.09316 0.230693,-0.366974 0.350267,-0.60847 0.152151,-0.30729 0.26495,-0.470545 0.375804,-0.543902 l 0.158396,-0.104821 2.933619,0.0082 2.933619,0.0082 0.178737,0.111143 c 0.09831,0.06112 0.228388,0.191475 0.289072,0.289663 0.184741,0.298916 0.149435,0.561767 -0.247912,1.845741 -0.193244,0.624442 -0.455352,1.483201 -0.582462,1.908354 -0.573067,1.916773 -0.884351,2.923207 -0.997976,3.226621 -0.146721,0.39179 -0.358489,0.632312 -0.620847,0.705147 -0.131323,0.03646 -1.148013,0.05358 -3.192665,0.05377 -2.844783,2.37e-4 -3.004117,0.0049 -3.079937,0.08862 -0.04398,0.04859 -0.07987,0.11925 -0.07978,0.157016 3.83e-4,0.148272 0.20247,0.391677 0.399398,0.481071 0.194878,0.08847 0.353631,0.0928 3.431606,0.09381 3.527673,0.0012 3.434586,0.0084 3.576034,-0.277555 0.03593,-0.07263 0.111266,-0.284228 0.167435,-0.470232 0.05616,-0.186004 0.300679,-0.99041 0.543368,-1.787571 1.019049,-3.347268 1.248567,-4.115918 1.280206,-4.287356 l 0.03336,-0.180772 0.141707,0.0837 c 0.176507,0.104263 0.265914,0.238277 0.336867,0.504929 0.06456,0.242612 0.120859,0.02528 -0.729679,2.816612 -0.323868,1.062881 -0.697331,2.289768 -0.829917,2.726417 -0.288652,0.95062 -0.356553,1.092293 -0.645344,1.346498 -0.407515,0.358709 -0.288365,0.347892 -3.812574,0.346123 -2.869654,-0.0015 -3.16519,-0.009 -3.389075,-0.08637 z m 6.132744,-5.721662 c 0.11816,-0.107506 0.273876,-0.539109 0.235757,-0.653465 -0.01514,-0.04543 -0.499024,-0.05915 -2.085652,-0.05915 -2.343289,0 -2.146547,-0.03637 -2.296572,0.424486 -0.136873,0.420451 -0.25774,0.396831 2.030612,0.396831 h 1.996371 z m 0.528023,-1.59432 c 0.122657,-0.09165 0.289058,-0.614297 0.221489,-0.695712 -0.04386,-0.05284 -0.437908,-0.06521 -2.077342,-0.06521 -2.302557,0 -2.131588,-0.03226 -2.283052,0.430815 -0.06424,0.196426 -0.07027,0.269571 -0.0265,0.322296 0.07856,0.09466 4.039224,0.102083 4.165411,0.0078 z"
       id="path3881" /><path
       style="fill:#000000;stroke-width:0.0517876"
       d="M 9.496573,26.336546 C 9.0106929,26.188212 8.5323953,25.739066 8.3745863,25.282945 8.2403839,24.895053 8.251779,24.31038 8.3999587,23.980973 8.5842002,23.571408 8.8395503,23.301715 9.220801,23.114026 9.5093975,22.97195 9.6220812,22.945043 9.9315274,22.944318 c 0.2022626,-4.69e-4 0.4590086,0.03082 0.5705446,0.06955 0.266022,0.09236 0.630731,0.43306 0.780993,0.729589 0.136494,0.269357 0.250753,0.783678 0.224802,1.011912 l -0.01747,0.153663 -1.335391,0.0259 -1.3353916,0.0259 0.1442751,0.284511 c 0.095094,0.187525 0.2208259,0.337583 0.3688344,0.440196 0.2100273,0.145608 0.2555137,0.155683 0.7029161,0.155683 0.44047,0 0.49622,-0.01183 0.703915,-0.149268 0.248494,-0.164446 0.313377,-0.151879 0.456533,0.08842 0.08582,0.144053 0.08477,0.148241 -0.06821,0.272268 -0.2668,0.216315 -0.658583,0.332843 -1.10243,0.327897 -0.2196765,-0.0025 -0.4576725,-0.02224 -0.5288805,-0.04398 z m 1.450054,-2.012911 c 0,-0.173932 -0.256206,-0.605073 -0.428941,-0.721817 -0.410166,-0.277213 -1.008589,-0.181203 -1.3796504,0.221351 -0.1161195,0.125975 -0.2111269,0.235547 -0.2111269,0.243492 0,0.0079 -0.021679,0.09003 -0.048173,0.182414 l -0.048173,0.167968 H 9.888595 c 0.985114,0 1.058031,-0.0064 1.058032,-0.09341 z m 5.489491,2.023972 c -0.191345,-0.0719 -0.382244,-0.254086 -0.470986,-0.449493 -0.08419,-0.185385 -0.09655,-0.351671 -0.09754,-1.312762 l -0.0011,-1.100487 h -0.233045 -0.233044 v -0.233044 -0.233045 h 0.233044 0.233045 v -0.362514 -0.362513 h 0.256573 0.256571 l 0.01532,0.349566 0.01531,0.349568 0.559608,0.01473 0.559608,0.01473 -0.01583,0.218315 -0.01583,0.218317 -0.556717,0.0147 -0.556717,0.0147 1.03e-4,0.99516 c 5.2e-5,0.84369 0.01387,1.02275 0.09063,1.176417 0.08841,0.176974 0.09789,0.181255 0.401274,0.181149 0.1709,-6.3e-5 0.362838,-0.019 0.426531,-0.0421 0.09885,-0.03585 0.128357,-0.01567 0.201551,0.137817 0.111001,0.232774 0.07037,0.325538 -0.172077,0.392864 -0.205829,0.05716 -0.762188,0.06829 -0.896199,0.01793 z m 3.262287,-0.01102 c -0.234534,-0.07134 -0.437051,-0.198782 -0.621117,-0.390858 l -0.181257,-0.189144 -0.0259,0.275354 -0.02589,0.275353 -0.194204,0.01607 -0.194204,0.01607 v -2.411254 -2.411251 h 0.258939 0.258938 v 0.985169 0.98517 l 0.263399,-0.208205 c 0.825011,-0.652134 1.869634,-0.375979 2.345674,0.620098 0.141954,0.297026 0.160598,0.388395 0.15852,0.776814 -0.0028,0.512025 -0.13928,0.877718 -0.460444,1.233209 -0.293231,0.324571 -0.644265,0.476732 -1.08736,0.471333 -0.200911,-0.0025 -0.423705,-0.02222 -0.495097,-0.04394 z m 0.877779,-0.571562 c 0.815672,-0.416125 0.840347,-1.725283 0.04108,-2.179377 -0.28997,-0.164743 -0.759005,-0.174101 -1.021335,-0.02038 -0.402137,0.23565 -0.670955,0.81229 -0.599819,1.286665 0.05147,0.343235 0.323532,0.753114 0.594258,0.895294 0.292609,0.153671 0.704894,0.161114 0.985821,0.01779 z m 2.883837,0.529526 c -0.339182,-0.112985 -0.766195,-0.510402 -0.94951,-0.883698 -0.124041,-0.252594 -0.144707,-0.357697 -0.144707,-0.73596 0,-0.393773 0.01823,-0.478327 0.169373,-0.785332 0.306566,-0.622721 0.830129,-0.944679 1.539619,-0.946768 0.350166,-0.001 0.460018,0.02119 0.709626,0.143566 0.373203,0.182964 0.726046,0.570438 0.872135,0.957729 0.150438,0.398824 0.126194,1.010385 -0.05491,1.384955 -0.179175,0.370589 -0.541581,0.711785 -0.89746,0.844936 -0.358983,0.134313 -0.877009,0.142879 -1.24417,0.02057 z m 1.095875,-0.526286 c 1.055534,-0.542941 0.801351,-2.155741 -0.364947,-2.315599 -0.467703,-0.0641 -0.97986,0.229654 -1.184756,0.679545 -0.181442,0.398392 -0.104922,1.005895 0.168477,1.337577 0.312534,0.379156 0.954625,0.51791 1.381226,0.298477 z m 2.860991,0.50569 c -0.392413,-0.154855 -0.779764,-0.551054 -0.930968,-0.952233 -0.09679,-0.256807 -0.112837,-0.383617 -0.09482,-0.749315 0.02625,-0.532881 0.168775,-0.850761 0.531234,-1.184863 0.360134,-0.331961 0.643291,-0.441936 1.140113,-0.442806 0.706729,-0.0012 1.232357,0.320684 1.538293,0.94213 0.144405,0.293327 0.16813,0.396532 0.168629,0.733543 7.47e-4,0.514605 -0.121762,0.86089 -0.423254,1.196222 -0.347383,0.386371 -0.663223,0.530926 -1.205986,0.551959 -0.356727,0.01382 -0.493865,-0.0041 -0.72324,-0.09464 z m 1.302588,-0.589278 c 0.591018,-0.409715 0.684408,-1.328926 0.189559,-1.865774 -0.636409,-0.690422 -1.737536,-0.38108 -1.961124,0.550943 -0.136055,0.567136 0.120598,1.126846 0.648447,1.414141 0.11211,0.06102 0.25898,0.08052 0.527559,0.07005 0.315544,-0.0123 0.406196,-0.03808 0.595559,-0.169357 z m -22.4486118,0.61637 c -0.020304,-0.0203 -0.036915,-0.917957 -0.036915,-1.99479 V 22.348379 L 5.4959745,22.334009 4.758,22.319639 V 22.086594 21.85355 h 1.76078 1.7607807 v 0.233044 0.233045 l -0.73736,0.01436 -0.7373599,0.01437 -0.013561,1.979459 -0.013561,1.97946 -0.2349728,0.01533 c -0.1292348,0.0084 -0.251583,-0.0013 -0.2718847,-0.02157 z m 5.6613088,-0.0067 c 8.97e-4,-0.02137 0.268171,-0.398515 0.594004,-0.838115 0.359067,-0.484439 0.575688,-0.821027 0.549936,-0.854497 -0.135033,-0.175499 -1.07892,-1.4642 -1.111997,-1.518222 -0.03009,-0.04914 0.03938,-0.06473 0.288531,-0.06473 h 0.328167 l 0.447671,0.599855 0.447672,0.599855 0.450563,-0.599855 0.450563,-0.599855 h 0.309932 c 0.244891,0 0.304072,0.01527 0.282012,0.07275 -0.01535,0.04002 -0.257854,0.383757 -0.538886,0.763868 -0.281032,0.380113 -0.527887,0.718953 -0.548569,0.752979 -0.02259,0.03717 0.20068,0.382617 0.559239,0.86527 0.328262,0.441871 0.596841,0.817145 0.596841,0.833941 0,0.0168 -0.145616,0.0236 -0.32359,0.01512 l -0.323591,-0.01542 -0.431601,-0.569665 c -0.237381,-0.313314 -0.449537,-0.576283 -0.471459,-0.584373 -0.02193,-0.0081 -0.241755,0.254085 -0.488517,0.582611 l -0.44866,0.597321 h -0.309921 c -0.170456,0 -0.309209,-0.01748 -0.30834,-0.03884 z m 18.77036,-0.02303 c -0.01425,-0.03718 -0.01985,-1.116293 -0.01243,-2.398038 l 0.01351,-2.330444 0.271885,-0.01565 0.271884,-0.01565 3.92e-4,1.491601 3.92e-4,1.491601 0.703005,-0.737974 0.703006,-0.737974 h 0.332272 c 0.182768,0 0.332291,0.01411 0.332291,0.03137 0,0.01725 -0.330345,0.379499 -0.734099,0.804988 l -0.734098,0.773617 0.281916,0.2955 c 0.155054,0.162524 0.514527,0.540196 0.798831,0.83927 l 0.516917,0.54377 -0.336619,0.01609 -0.33662,0.01609 -0.76251,-0.77502 -0.762513,-0.775021 -0.01431,0.758931 -0.01431,0.758931 -0.246519,0.0158 c -0.167058,0.01071 -0.254877,-0.006 -0.272441,-0.05179 z"
       id="path4172" /></g></svg>
