<svg width="213" height="61" viewBox="0 0 213 61" fill="none" xmlns="http://www.w3.org/2000/svg">
<rect width="213" height="61" rx="5" fill="#E3E3E2"/>
<path d="M24.624 40H22.392V24.592H18.24V22.72H28.752V24.592H24.624V40ZM32.8076 25.072H30.5276V22.36H32.8076V25.072ZM32.6876 40H30.5756V27.04H32.6876V40ZM44.4176 40H42.5456L42.3296 39.232C41.2976 39.856 40.2176 40.168 39.1856 40.168C36.8816 40.168 35.6336 38.704 35.6336 36.568V30.256C35.6336 28.12 36.9056 26.8 39.1376 26.8C40.3376 26.8 41.3456 27.088 42.3056 27.616V22.72H44.4176V40ZM39.7136 38.248C40.5536 38.248 41.3696 37.984 42.3056 37.456V29.584C41.3456 28.96 40.6736 28.72 39.6656 28.72C38.5136 28.72 37.7456 29.344 37.7456 30.712V35.968C37.7456 37.336 38.3696 38.248 39.7136 38.248ZM49.3929 36.088C49.3929 37.72 50.1129 38.416 51.6969 38.416C53.1849 38.416 54.1209 37.72 54.1209 36.088V35.68H56.2329V36.496C56.2329 38.872 54.5289 40.24 51.6969 40.24C48.8889 40.24 47.2809 38.872 47.2809 36.496V30.544C47.2809 28.168 48.8889 26.8 51.6969 26.8C54.5289 26.8 56.2329 28.168 56.2329 30.544V34.384H49.3929V36.088ZM49.3929 30.952V32.68H54.1209V30.952C54.1209 29.32 53.1849 28.624 51.6969 28.624C50.1129 28.624 49.3929 29.32 49.3929 30.952ZM67.1419 35.68V36.736C67.1419 39.4 65.4859 40.24 62.7019 40.24C60.0619 40.24 58.4299 39.376 58.4299 37.12V35.68H60.4459V36.856C60.4459 38.128 61.3579 38.416 62.6539 38.416C64.1419 38.416 65.0779 38.152 65.0779 36.76V35.824C65.0779 35.08 64.6939 34.6 63.5179 34.408L61.6219 34.072C59.3659 33.712 58.6699 33.016 58.6699 30.568V29.872C58.6699 27.88 60.0619 26.8 62.7979 26.8C65.4379 26.8 66.9019 27.856 66.9019 29.776V31.096H64.9099V29.944C64.9099 29.032 64.3099 28.528 62.8699 28.528C61.3339 28.528 60.6619 28.936 60.6619 29.944V30.568C60.6619 31.84 61.1179 32.032 62.4139 32.272L64.1419 32.584C66.3259 32.944 67.1419 33.712 67.1419 35.68Z" fill="#181818"/>
<path d="M191 40.685C190.07 39.615 188.66 38 186 38C183.34 38 181.93 39.615 181 40.685C180.07 41.755 179.78 42 179 42C178.22 42 177.875 41.68 177 40.685C176.125 39.69 174.66 38 172 38C169.34 38 167.93 39.615 167 40.685C166.07 41.755 165.78 42 165 42H163V46H165C167.66 46 169.07 44.385 170 43.315C170.93 42.245 171.225 42 172 42C172.775 42 173.125 42.32 174 43.315C174.875 44.31 176.345 46 179 46C181.655 46 183.07 44.385 184 43.315C184.93 42.245 185.225 42 186 42C186.775 42 187.125 42.32 188 43.315C188.875 44.31 190.345 46 193 46H195V42H193C192.225 42 191.875 41.68 191 40.685Z" fill="black"/>
<path d="M191 30.685C190.07 29.615 188.66 28 186 28C183.34 28 181.93 29.615 181 30.685C180.07 31.755 179.78 32 179 32C178.22 32 177.875 31.68 177 30.685C176.125 29.69 174.66 28 172 28C169.34 28 167.93 29.615 167 30.685C166.07 31.755 165.78 32 165 32H163V36H165C167.66 36 169.07 34.385 170 33.315C170.93 32.245 171.225 32 172 32C172.775 32 173.125 32.32 174 33.315C174.875 34.31 176.345 36 179 36C181.655 36 183.07 34.385 184 33.315C184.93 32.245 185.225 32 186 32C186.775 32 187.125 32.32 188 33.315C188.875 34.31 190.345 36 193 36H195V32H193C192.225 32 191.875 31.68 191 30.685Z" fill="black"/>
<path d="M193 22C192.225 22 191.875 21.68 191 20.685C190.125 19.69 188.66 18 186 18C183.34 18 181.93 19.615 181 20.685C180.07 21.755 179.78 22 179 22C178.22 22 177.875 21.68 177 20.685C176.125 19.69 174.66 18 172 18C169.34 18 167.93 19.615 167 20.685C166.07 21.755 165.78 22 165 22H163V26H165C167.66 26 169.07 24.385 170 23.315C170.93 22.245 171.225 22 172 22C172.775 22 173.125 22.32 174 23.315C174.875 24.31 176.345 26 179 26C181.655 26 183.07 24.385 184 23.315C184.93 22.245 185.225 22 186 22C186.775 22 187.125 22.32 188 23.315C188.875 24.31 190.345 26 193 26H195V22H193Z" fill="black"/>
</svg>
