<svg width="137" height="61" viewBox="0 0 137 61" fill="none" xmlns="http://www.w3.org/2000/svg">
<rect width="137" height="61" rx="5" fill="#747373"/>
<path d="M54.624 42H52.392V26.592H48.24V24.72H58.752V26.592H54.624V42ZM67.647 32.4V38.64C67.647 40.92 66.039 42.24 63.183 42.24C60.303 42.24 58.695 40.92 58.695 38.64V32.4C58.695 30.12 60.303 28.8 63.183 28.8C66.039 28.8 67.647 30.12 67.647 32.4ZM60.807 32.904V38.136C60.807 39.648 61.599 40.32 63.183 40.32C64.695 40.32 65.535 39.648 65.535 38.136V32.904C65.535 31.392 64.719 30.72 63.183 30.72C61.599 30.72 60.807 31.392 60.807 32.904ZM84.8972 36.744V37.944C84.8972 40.968 83.2652 42.24 80.2892 42.24H79.0652C76.2572 42.24 74.7452 41.256 74.7452 38.736V36.696H76.8812V38.208C76.8812 39.984 77.6012 40.416 79.1372 40.416H80.1932C81.7292 40.416 82.7372 40.152 82.7372 38.04V36.696C82.7372 35.472 82.2332 34.656 80.5532 34.296L78.2972 33.816C76.0892 33.36 75.0092 32.448 75.0092 29.592V28.512C75.0092 25.872 76.5452 24.48 79.3532 24.48H79.8812C82.6652 24.48 84.3692 25.752 84.3692 27.984V29.856H82.2572V28.416C82.2572 26.904 81.3452 26.304 79.9052 26.304H79.4252C77.8892 26.304 77.1692 26.88 77.1692 28.656V29.472C77.1692 31.128 77.5052 31.512 79.0412 31.872L81.1532 32.328C84.0092 32.976 84.8972 34.176 84.8972 36.744ZM89.3773 38.136C89.3773 39.648 90.2413 40.32 91.7773 40.32C93.1453 40.32 94.1053 39.648 94.1053 38.136V36.912H96.1213V38.64C96.1213 40.92 94.5373 42.24 91.7773 42.24C88.8733 42.24 87.2653 40.92 87.2653 38.64V32.4C87.2653 30.12 88.8733 28.8 91.7773 28.8C94.5373 28.8 96.1213 30.12 96.1213 32.4V34.272H94.1053V32.904C94.1053 31.392 93.2413 30.72 91.7773 30.72C90.1693 30.72 89.3773 31.392 89.3773 32.904V38.136ZM98.1771 38.88V38.304C98.1771 36.048 99.4251 34.848 102.065 34.848H104.801V32.448C104.801 31.176 104.177 30.624 102.761 30.624C101.393 30.624 100.841 31.176 100.841 32.448V33.12H98.8251V32.16C98.8251 29.904 100.193 28.8 102.833 28.8C105.641 28.8 106.913 29.976 106.913 32.16V42.096H105.161L104.945 41.184C103.913 41.832 102.641 42.144 101.417 42.144C99.3051 42.144 98.1771 41.016 98.1771 38.88ZM102.137 40.44C103.073 40.44 104.081 40.2 104.801 39.72V36.48H102.449C101.009 36.48 100.337 36.984 100.337 38.232V38.76C100.337 39.888 100.961 40.44 102.137 40.44ZM109.911 24.72H112.023V37.992C112.023 39.552 112.431 40.272 113.415 40.272C113.679 40.272 114.015 40.248 114.231 40.176V41.952C113.871 42.072 113.487 42.096 112.671 42.096C110.799 42.096 109.911 41.04 109.911 38.256V24.72ZM117.69 38.088C117.69 39.72 118.41 40.416 119.994 40.416C121.482 40.416 122.418 39.72 122.418 38.088V37.68H124.53V38.496C124.53 40.872 122.826 42.24 119.994 42.24C117.186 42.24 115.578 40.872 115.578 38.496V32.544C115.578 30.168 117.186 28.8 119.994 28.8C122.826 28.8 124.53 30.168 124.53 32.544V36.384H117.69V38.088ZM117.69 32.952V34.68H122.418V32.952C122.418 31.32 121.482 30.624 119.994 30.624C118.41 30.624 117.69 31.32 117.69 32.952Z" fill="white"/>
<path d="M20.1053 37.4344L15.8301 41.7097" stroke="white" stroke-width="2" stroke-linecap="round" stroke-linejoin="round"/>
<path d="M36.0893 21.4504L32.1357 25.4039" stroke="white" stroke-width="2" stroke-linecap="round" stroke-linejoin="round"/>
<path d="M37.5403 24.5501V20H32.9902" stroke="white" stroke-width="2" stroke-linecap="round" stroke-linejoin="round"/>
<path d="M15 37.9899V42.54H19.5501" stroke="white" stroke-width="2" stroke-linecap="round" stroke-linejoin="round"/>
<path d="M20.4504 25.4507L15.8301 20.8304" stroke="white" stroke-width="2" stroke-linecap="round" stroke-linejoin="round"/>
<path d="M36.0895 41.0895L32.2236 37.2237" stroke="white" stroke-width="2" stroke-linecap="round" stroke-linejoin="round"/>
<path d="M32.9902 42.54H37.5403V37.9899" stroke="white" stroke-width="2" stroke-linecap="round" stroke-linejoin="round"/>
<path d="M19.5501 20H15V24.5501" stroke="white" stroke-width="2" stroke-linecap="round" stroke-linejoin="round"/>
</svg>
