<svg width="137" height="61" viewBox="0 0 137 61" fill="none" xmlns="http://www.w3.org/2000/svg">
<rect width="137" height="61" rx="5" fill="#747373"/>
<path d="M55.1748 40H52.9428V24.592H48.7908V22.72H59.3028V24.592H55.1748V40ZM67.0407 32.176H65.0727V29.728C65.0727 28.96 64.6407 28.672 64.0647 28.672C63.2247 28.672 62.4567 29.248 61.7847 29.824V40H59.6727V26.944H61.3767L61.5927 28.144C62.4567 27.424 63.4407 26.8 64.8087 26.8C66.2967 26.8 67.0407 27.808 67.0407 29.368V32.176ZM68.1185 36.88V36.304C68.1185 34.048 69.3665 32.848 72.0065 32.848H74.7425V30.448C74.7425 29.176 74.1185 28.624 72.7025 28.624C71.3345 28.624 70.7825 29.176 70.7825 30.448V31.12H68.7665V30.16C68.7665 27.904 70.1345 26.8 72.7745 26.8C75.5825 26.8 76.8545 27.976 76.8545 30.16V40.096H75.1025L74.8865 39.184C73.8545 39.832 72.5825 40.144 71.3585 40.144C69.2465 40.144 68.1185 39.016 68.1185 36.88ZM72.0785 38.44C73.0145 38.44 74.0225 38.2 74.7425 37.72V34.48H72.3905C70.9505 34.48 70.2785 34.984 70.2785 36.232V36.76C70.2785 37.888 70.9025 38.44 72.0785 38.44ZM82.1084 25.072H79.8284V22.36H82.1084V25.072ZM81.9884 40H79.8764V27.04H81.9884V40ZM85.1024 22.72H87.2144V35.992C87.2144 37.552 87.6224 38.272 88.6064 38.272C88.8704 38.272 89.2064 38.248 89.4224 38.176V39.952C89.0624 40.072 88.6784 40.096 87.8624 40.096C85.9904 40.096 85.1024 39.04 85.1024 36.256V22.72Z" fill="white"/>
</svg>
