<svg width="137" height="61" viewBox="0 0 137 61" fill="none" xmlns="http://www.w3.org/2000/svg">
<rect width="137" height="61" rx="5" fill="#747373"/>
<path d="M69.624 40H67.392V24.592H63.24V22.72H73.752V24.592H69.624V40ZM81.4899 32.176H79.5219V29.728C79.5219 28.96 79.0899 28.672 78.5139 28.672C77.6739 28.672 76.9059 29.248 76.2339 29.824V40H74.1219V26.944H75.8259L76.0419 28.144C76.9059 27.424 77.8899 26.8 79.2579 26.8C80.7459 26.8 81.4899 27.808 81.4899 29.368V32.176ZM85.7061 25.072H83.4261V22.36H85.7061V25.072ZM85.5861 40H83.4741V27.04H85.5861V40ZM95.3001 27.04H97.5081L93.7401 40H91.4601L87.6921 27.04H89.9001L92.5881 37.696L95.3001 27.04ZM101.855 25.072H99.5745V22.36H101.855V25.072ZM101.735 40H99.6225V27.04H101.735V40ZM104.201 36.88V36.304C104.201 34.048 105.449 32.848 108.089 32.848H110.825V30.448C110.825 29.176 110.201 28.624 108.785 28.624C107.417 28.624 106.865 29.176 106.865 30.448V31.12H104.849V30.16C104.849 27.904 106.217 26.8 108.857 26.8C111.665 26.8 112.937 27.976 112.937 30.16V40.096H111.185L110.969 39.184C109.937 39.832 108.665 40.144 107.441 40.144C105.329 40.144 104.201 39.016 104.201 36.88ZM108.161 38.44C109.097 38.44 110.105 38.2 110.825 37.72V34.48H108.473C107.033 34.48 106.361 34.984 106.361 36.232V36.76C106.361 37.888 106.985 38.44 108.161 38.44Z" fill="white"/>
<path d="M43.6472 34.3636C43.5798 34.3636 43.511 34.3679 43.4436 34.3773C42.5964 34.4908 41.9992 35.2714 42.1118 36.1186C42.214 36.8855 42.8752 37.4637 43.6494 37.4637C43.7173 37.4637 43.7856 37.4594 43.8535 37.4504C44.7002 37.337 45.2974 36.5564 45.1853 35.7087C45.0826 34.9419 44.4214 34.3636 43.6472 34.3636Z" fill="white"/>
<path d="M45.7727 25.0504C45.0814 24.5937 44.1689 24.3523 43.1322 24.3523C42.8276 24.3523 42.5144 24.3733 42.2017 24.415C41.1671 24.5529 40.1636 25.0539 39.4478 25.7885C38.7222 26.5343 38.3695 27.4447 38.482 28.2859C38.5645 28.9067 39.0319 29.308 39.6725 29.308C39.7412 29.308 39.8113 29.3028 39.8813 29.2938C40.7371 29.1795 40.9218 28.5901 41.0997 28.0204C41.3029 27.3708 41.4945 26.7577 42.6004 26.61C42.7138 26.5949 42.8242 26.5872 42.929 26.5872C43.7251 26.5872 44.2192 27.0074 44.321 27.7704C44.4207 28.517 43.8304 29.1125 43.2053 29.7427C42.5037 30.4503 41.7085 31.252 41.8601 32.3892C41.8992 32.6822 42.0285 32.9554 42.2236 33.1587C42.4474 33.3919 42.7404 33.5152 43.0708 33.5152C43.1314 33.5152 43.1941 33.5114 43.2564 33.5028C44.1517 33.3833 44.2737 32.8639 44.3914 32.3609C44.4361 32.171 44.4825 31.9742 44.5719 31.7972C44.696 31.5497 45.0067 31.2593 45.3671 30.9233C46.2272 30.1195 47.4048 29.0188 47.187 27.3884C47.0508 26.3672 46.5743 25.5806 45.7727 25.0504Z" fill="white"/>
<path d="M55.388 38.5933L52.9894 20.618C52.8661 19.696 52.0722 19 51.1421 19C51.06 19 50.9762 19.0056 50.8942 19.0168L32.9193 21.4153C31.9002 21.5515 31.1819 22.4911 31.3177 23.5106L31.4547 24.5391L19.6655 22.8357C19.5968 22.8258 19.5267 22.8206 19.4576 22.8206C18.744 22.8206 18.1292 23.3538 18.0265 24.0605L16.015 37.9841C15.96 38.3669 16.0571 38.7475 16.2883 39.0573C16.5198 39.3666 16.8575 39.5677 17.2403 39.6226L31.1634 41.6341C31.2326 41.6436 31.3026 41.6483 31.3714 41.6483C32.085 41.6483 32.6998 41.116 32.802 40.4088L33.2024 37.6365L33.7158 41.4846C33.8391 42.4074 34.6331 43.103 35.5628 43.103C35.6452 43.103 35.729 43.0978 35.8111 43.0871L53.7864 40.6877C54.2792 40.6224 54.7182 40.368 55.0207 39.9724C55.324 39.5771 55.4538 39.0869 55.388 38.5933ZM31.6137 40.2379C31.5948 40.3698 31.4702 40.4651 31.3357 40.4454L17.4121 38.4339C17.3241 38.4214 17.2734 38.3686 17.2506 38.3381C17.2278 38.3076 17.1918 38.2431 17.2042 38.1555L19.2157 24.2319C19.2333 24.1121 19.3373 24.0214 19.4576 24.0214C19.4696 24.0214 19.4821 24.0223 19.4937 24.024L31.6201 25.7755L32.6203 33.2698L31.6137 40.2379ZM53.7911 39.0319C53.7615 39.071 53.6945 39.1385 53.5815 39.1535L35.6066 41.5525C35.4326 41.5766 35.274 41.4515 35.2508 41.2805L32.8523 23.3057C32.8291 23.1325 32.9511 22.9731 33.1242 22.9499L51.0987 20.5509C51.1137 20.5492 51.1275 20.5484 51.1425 20.5484C51.2998 20.5484 51.4347 20.6665 51.4553 20.8233L53.8547 38.7986C53.8689 38.9116 53.8203 38.9932 53.7911 39.0319Z" fill="white"/>
<path d="M28.4072 28.0594C27.8556 27.5542 27.0384 27.2015 26.107 27.067C25.9369 27.0421 25.762 27.0296 25.588 27.0296C24.8564 27.0296 24.1372 27.2444 23.5615 27.6345C22.9699 28.0358 22.5966 28.581 22.512 29.1691C22.4716 29.4488 22.5382 29.698 22.7053 29.8904C22.8557 30.0632 23.0821 30.1796 23.3433 30.2174C23.409 30.2268 23.4722 30.232 23.5323 30.232C24.0595 30.232 24.2949 29.8724 24.5226 29.5248C24.7765 29.1356 25.0171 28.7678 25.6568 28.7678C25.7453 28.7678 25.8411 28.7752 25.9403 28.7893C26.6982 28.8985 27.0767 29.347 26.9792 30.0198C26.8962 30.5976 26.3291 30.9177 25.7298 31.2558C25.0566 31.6356 24.2932 32.066 24.166 32.9472C24.1303 33.1929 24.1802 33.449 24.3035 33.6488C24.4044 33.8129 24.6021 34.0195 24.9724 34.0732C25.0497 34.084 25.1232 34.09 25.1911 34.09C25.7118 34.09 25.8896 33.7699 26.0606 33.4606C26.1341 33.3278 26.2097 33.1908 26.3141 33.0778C26.4589 32.9193 26.7528 32.768 27.0926 32.5932C27.9046 32.1756 29.0168 31.6025 29.199 30.3403C29.3283 29.4419 29.0551 28.6531 28.4072 28.0594Z" fill="white"/>
<path d="M24.9264 34.7655C24.8697 34.7573 24.8125 34.7526 24.7558 34.7526C24.1616 34.7526 23.6491 35.1964 23.564 35.7837C23.47 36.4397 23.9266 37.0506 24.5827 37.1455C24.6394 37.1541 24.6969 37.1576 24.7532 37.1576C25.3478 37.1576 25.8604 36.7146 25.945 36.1273C26.0391 35.4713 25.5824 34.8608 24.9264 34.7655Z" fill="white"/>
</svg>
