<svg width="137" height="61" viewBox="0 0 137 61" fill="none" xmlns="http://www.w3.org/2000/svg">
<rect width="137" height="61" rx="5" fill="#747373"/>
<path d="M43.5258 38.512L50.3898 25.576L51.1098 24.592H43.9338V22.72H53.5338V24.208L46.7418 37.144L46.0218 38.128H53.7978V40H43.5258V38.512ZM64.6587 30.4V36.64C64.6587 38.92 63.0507 40.24 60.1947 40.24C57.3147 40.24 55.7067 38.92 55.7067 36.64V30.4C55.7067 28.12 57.3147 26.8 60.1947 26.8C63.0507 26.8 64.6587 28.12 64.6587 30.4ZM57.8187 30.904V36.136C57.8187 37.648 58.6107 38.32 60.1947 38.32C61.7067 38.32 62.5467 37.648 62.5467 36.136V30.904C62.5467 29.392 61.7307 28.72 60.1947 28.72C58.6107 28.72 57.8187 29.392 57.8187 30.904ZM76.2368 30.4V36.64C76.2368 38.92 74.6288 40.24 71.7728 40.24C68.8928 40.24 67.2848 38.92 67.2848 36.64V30.4C67.2848 28.12 68.8928 26.8 71.7728 26.8C74.6288 26.8 76.2368 28.12 76.2368 30.4ZM69.3968 30.904V36.136C69.3968 37.648 70.1888 38.32 71.7728 38.32C73.2848 38.32 74.1248 37.648 74.1248 36.136V30.904C74.1248 29.392 73.3088 28.72 71.7728 28.72C70.1888 28.72 69.3968 29.392 69.3968 30.904ZM80.783 26.944L80.999 27.904C81.767 27.304 83.015 26.8 84.239 26.8C85.511 26.8 86.399 27.28 86.879 28.144C87.839 27.304 89.135 26.8 90.503 26.8C92.519 26.8 93.551 28.12 93.551 30.232V40H91.439V30.76C91.439 29.464 91.007 28.672 89.831 28.672C88.967 28.672 88.127 29.032 87.335 29.632C87.359 29.824 87.359 30.04 87.359 30.232V40H85.247V30.76C85.247 29.464 84.815 28.672 83.639 28.672C82.727 28.672 81.839 29.008 81.191 29.56V40H79.079V26.944H80.783Z" fill="white"/>
</svg>
